<svg width="32" height="32" viewBox="0 0 32 32" fill="none" xmlns="http://www.w3.org/2000/svg">
<path d="M2.45813 16.426H0V30.2517H2.45813C3.45592 30.2517 4.32773 29.7046 4.79126 28.8951V17.7825C4.32773 16.973 3.45592 16.426 2.45813 16.426Z" fill="white"/>
<path d="M31.3708 18.16C30.9269 17.6603 30.3148 17.3654 29.6475 17.3296C28.9798 17.2937 28.3401 17.5215 27.8452 17.9709L23.4617 21.9519C23.2376 23.9436 21.5437 25.4969 19.4932 25.4969H13.5334V23.6221H19.4511C20.614 23.6221 21.6096 22.6711 21.6129 21.5084C21.6154 20.6015 21.0452 19.8255 20.2445 19.5209C20.1259 19.4758 19.9992 19.4535 19.8723 19.4534C19.8715 19.4534 19.8708 19.4534 19.8701 19.4534H14.8155C13.5929 18.2119 11.9242 17.508 10.1714 17.508C8.91534 17.508 7.7025 17.8698 6.66602 18.5316V28.8014L10.7581 30.1845H22.3328L31.2381 21.5963C32.1999 20.6685 32.2583 19.1592 31.3708 18.16Z" fill="white"/>
<path d="M17.8027 1.74805H19.9144V5.84492H17.8027V1.74805Z" fill="white"/>
<path d="M25.7307 1.74805H21.7902V7.71978H15.9288V1.74805H11.9883V15.4904H25.7307V1.74805Z" fill="#F8B941"/>
</svg>
