<svg width="40" height="40" viewBox="0 0 40 40" fill="none" xmlns="http://www.w3.org/2000/svg">
<path d="M39.2064 24.6936H39.1283V19.0145C39.1283 18.8272 39.0616 18.6455 38.9408 18.5021L34.7043 13.485C34.5536 13.306 34.3324 13.2034 34.098 13.2034H28.3213C27.8838 13.2034 27.5277 13.5594 27.5277 13.9975V24.6937H0.793959C0.356 24.6937 0 25.0499 0 25.4877V28.5101C0 28.9477 0.356 29.3038 0.793959 29.3038H2.89984C2.97796 29.3038 3.19192 29.2682 3.19192 28.9837C3.19192 27.54 4.36653 26.3655 5.8102 26.3655C7.2538 26.3655 8.42849 27.54 8.42849 28.9882C8.42849 29.2682 8.64196 29.3038 8.71992 29.3038H9.34686C9.42482 29.3038 9.63894 29.2682 9.63894 28.9837C9.63894 27.54 10.8134 26.3655 12.2571 26.3655C13.7008 26.3655 14.8752 27.54 14.8752 28.9882C14.8752 29.2682 15.089 29.3038 15.1669 29.3038H19.8136C19.8921 29.3038 20.1058 29.2682 20.1058 28.9837C20.1058 27.54 21.2802 26.3655 22.7239 26.3655C24.1678 26.3655 25.3421 27.54 25.3421 28.9891C25.3421 29.2682 25.5552 29.3038 25.6336 29.3038H30.857C30.9354 29.3038 31.1483 29.2682 31.1483 28.9837C31.1483 27.54 32.3234 26.3655 33.7665 26.3655C35.2104 26.3655 36.3854 27.54 36.3854 28.9891C36.3854 29.2598 36.5986 29.3038 36.677 29.3038H39.2061C39.6437 29.3038 39.9998 28.9478 39.9998 28.5101V25.4877C40 25.0498 39.644 24.6936 39.2064 24.6936ZM36.2295 18.8667C36.1872 18.954 36.0993 19.0096 36.0033 19.0096H36.0032L29.7507 19.0083C29.612 19.0083 29.4997 18.896 29.4997 18.7576V15.2876C29.4997 15.1492 29.612 15.0369 29.7509 15.0369H33.1982C33.274 15.0369 33.3459 15.0712 33.3932 15.1301L36.1981 18.6012C36.2584 18.6765 36.2707 18.7796 36.2295 18.8667Z" fill="white"/>
<path d="M25.1972 9.35919H0.543265C0.242939 9.35919 0 9.60262 0 9.90246V22.3674C0 22.6676 0.24302 22.9107 0.543265 22.9107H25.1972C25.4975 22.9107 25.7404 22.6676 25.7404 22.3674V9.90246C25.7404 9.60262 25.4975 9.35919 25.1972 9.35919ZM4.34408 20.3301C4.34408 20.8378 3.93274 21.2494 3.4249 21.2494C2.91722 21.2494 2.50571 20.8378 2.50571 20.3301V11.9398C2.50571 11.4322 2.91722 11.0206 3.4249 11.0206C3.93274 11.0206 4.34408 11.4322 4.34408 11.9398V20.3301ZM8.12245 20.3301C8.12245 20.8378 7.71094 21.2494 7.20327 21.2494C6.69543 21.2494 6.28392 20.8378 6.28392 20.3301V11.9398C6.28392 11.4322 6.69543 11.0206 7.20327 11.0206C7.71094 11.0206 8.12245 11.4322 8.12245 11.9398V20.3301ZM11.9002 20.3301C11.9002 20.8378 11.4887 21.2494 10.981 21.2494C10.4733 21.2494 10.0618 20.8378 10.0618 20.3301V11.9398C10.0618 11.4322 10.4733 11.0206 10.981 11.0206C11.4887 11.0206 11.9002 11.4322 11.9002 11.9398V20.3301ZM15.6783 20.3301C15.6783 20.8378 15.2671 21.2494 14.7594 21.2494C14.2518 21.2494 13.8401 20.8378 13.8401 20.3301V11.9398C13.8401 11.4322 14.2518 11.0206 14.7594 11.0206C15.2671 11.0206 15.6783 11.4322 15.6783 11.9398V20.3301ZM19.4564 20.3301C19.4564 20.8378 19.0453 21.2494 18.5373 21.2494C18.0298 21.2494 17.618 20.8378 17.618 20.3301V11.9398C17.618 11.4322 18.0298 11.0206 18.5373 11.0206C19.0453 11.0206 19.4564 11.4322 19.4564 11.9398V20.3301ZM23.2348 20.3301C23.2348 20.8378 22.8229 21.2494 22.3151 21.2494C21.8075 21.2494 21.3963 20.8378 21.3963 20.3301V11.9398C21.3963 11.4322 21.8075 11.0206 22.3151 11.0206C22.8229 11.0206 23.2348 11.4322 23.2348 11.9398V20.3301Z" fill="#F8B941"/>
<path d="M35.4241 28.9834C35.4241 29.8988 34.6821 30.6408 33.7662 30.6408C32.8514 30.6408 32.1094 29.8988 32.1094 28.9834C32.1094 28.0681 32.8514 27.326 33.7662 27.326C34.6821 27.3261 35.4241 28.0682 35.4241 28.9834Z" fill="white"/>
<path d="M24.3812 28.9834C24.3812 29.8988 23.6391 30.6408 22.7241 30.6408C21.8084 30.6408 21.0664 29.8988 21.0664 28.9834C21.0664 28.0681 21.8084 27.326 22.7241 27.326C23.6391 27.3261 24.3812 28.0682 24.3812 28.9834Z" fill="white"/>
<path d="M12.2568 30.6406C13.172 30.6406 13.9139 29.8987 13.9139 28.9834C13.9139 28.0682 13.172 27.3263 12.2568 27.3263C11.3415 27.3263 10.5996 28.0682 10.5996 28.9834C10.5996 29.8987 11.3415 30.6406 12.2568 30.6406Z" fill="white"/>
<path d="M5.80957 30.6406C6.72483 30.6406 7.46679 29.8987 7.46679 28.9834C7.46679 28.0681 6.72483 27.3262 5.80957 27.3262C4.89431 27.3262 4.15234 28.0681 4.15234 28.9834C4.15234 29.8987 4.89431 30.6406 5.80957 30.6406Z" fill="white"/>
</svg>
