<svg width="32" height="32" viewBox="0 0 32 32" fill="none" xmlns="http://www.w3.org/2000/svg">
<g clip-path="url(#clip0)">
<path d="M16.0008 24.2588C15.3208 24.2588 14.7676 24.812 14.7676 25.492C14.7676 26.172 15.3208 26.7253 16.0008 26.7253C16.6809 26.7253 17.2341 26.172 17.2341 25.492C17.2341 24.812 16.6809 24.2588 16.0008 24.2588Z" fill="white"/>
<path d="M16.0016 18.9172C14.2381 18.9172 12.635 19.6155 11.4531 20.7496L13.0395 21.2035L11.948 24.5542H13.0375C13.4363 23.2969 14.6141 22.3831 16.0016 22.3831C17.3891 22.3831 18.567 23.2969 18.9657 24.5542H20.0553L18.9637 21.2035L20.5507 20.7494C19.3687 19.6153 17.7652 18.9172 16.0016 18.9172Z" fill="#F8B941"/>
<path d="M13.0376 26.4299H11.3369L10.8497 27.9255L9.83008 27.7584C10.6513 29.9878 12.6473 31.6535 15.0638 32.0001V28.4562C14.1026 28.1513 13.3424 27.3911 13.0376 26.4299Z" fill="#F8B941"/>
<path d="M27.3137 20.263L24.6763 13.7399C24.2934 12.7929 23.3859 12.1809 22.3643 12.1809H9.63649C8.61488 12.1809 7.70738 12.7928 7.32448 13.7399L4.68715 20.263C4.34594 21.1071 4.58423 22.0685 5.28001 22.6555L8.89462 25.7046L9.56352 25.8142L10.6523 22.4719L9.67938 22.1936L8.51359 22.226L8.46157 20.3509L9.31673 20.3271C10.8637 18.3298 13.2843 17.0415 16.0004 17.0415C18.7163 17.0415 21.136 18.3301 22.683 20.3271L23.5392 20.3509L23.4872 22.2259L22.3214 22.1936L21.3484 22.4719L22.4372 25.8142L23.1061 25.7045L26.7207 22.6554C27.4167 22.0685 27.6549 21.1071 27.3137 20.263Z" fill="white"/>
<path d="M20.6644 26.4299H18.9637C18.6589 27.3911 17.8987 28.1513 16.9375 28.4561V32C19.3539 31.6534 21.3498 29.9877 22.171 27.7584L21.1516 27.9255L20.6644 26.4299Z" fill="#F8B941"/>
<path d="M16.0003 11.2429C19.105 11.2429 21.6218 8.72606 21.6218 5.62143C21.6218 2.5168 19.105 0 16.0003 0C12.8957 0 10.3789 2.5168 10.3789 5.62143C10.3789 8.72606 12.8957 11.2429 16.0003 11.2429Z" fill="white"/>
</g>
<defs>
<clipPath id="clip0">
<rect width="32" height="32" fill="white"/>
</clipPath>
</defs>
</svg>
