<svg width="803" height="802" viewBox="0 0 803 802" fill="none" xmlns="http://www.w3.org/2000/svg">
<g opacity="0.3">
<path d="M119.844 517.474C121.232 516.21 123.508 518.733 125.525 518.99C126.995 519.036 128.446 518.642 129.691 517.857C128.501 517.51 127.266 517.34 126.027 517.353C122.75 517.096 122.492 513.181 119.589 514.573C116.963 515.938 113.969 516.427 111.044 515.968C110.992 517.085 110.363 518.558 110.17 520.032C110.818 519.849 111.477 519.711 112.144 519.619C114.167 519.494 118.454 518.733 119.844 517.474Z" stroke="white" stroke-width="0.5" stroke-miterlimit="10" stroke-linecap="round" stroke-linejoin="round" stroke-dasharray="8 8"/>
<path d="M121.42 533.102C122.92 532.058 125.913 529.356 126.961 529.81C128.009 530.264 129.356 529.356 129.356 528.763C129.356 528.169 127.261 526.215 128.906 525.62C129.362 525.38 129.743 525.017 130.004 524.572C130.265 524.127 130.397 523.618 130.385 523.102C129.862 522.812 129.276 522.656 128.679 522.648C127.294 522.773 118.837 523.404 118.837 523.404C117.703 524.187 116.408 524.706 115.047 524.924C113.986 524.812 115.047 523.121 111.625 523.994C113.335 526.124 113.558 527.192 117.034 528.167C120.925 529.265 116.735 531.265 119.926 533.258C120.192 533.434 120.449 533.624 120.696 533.827C120.917 533.566 121.159 533.324 121.42 533.102Z" stroke="white" stroke-width="0.5" stroke-miterlimit="10" stroke-linecap="round" stroke-linejoin="round" stroke-dasharray="8 8"/>
<path d="M403.425 434.152C404.473 436.932 405.522 446.671 403.083 450.508C400.644 454.345 401.699 455.378 404.129 456.76C406.559 458.143 407.61 461.637 407.61 464.421C407.61 467.204 409.35 466.864 409.7 472.775C410.049 478.687 411.439 482.857 413.527 485.296C414.214 486.324 414.619 487.515 414.702 488.749C414.785 489.983 414.543 491.217 414 492.328C416.77 494.487 419.822 496.257 423.071 497.59C430.328 500.195 432.933 502.255 433.429 504.847C433.962 507.441 440.178 512.103 441.734 508.479C443.289 504.854 447.428 506.929 450.543 506.929C453.657 506.929 454.175 510.555 454.677 512.623C455.179 514.69 462.451 513.67 465.058 515.213C467.665 516.755 468.675 522.47 472.315 524.544C475.954 526.619 479.039 521.954 481.646 523.51C484.253 525.065 490.978 526.612 495.122 525.062C499.265 523.512 501.854 526.612 507.03 526.104C512.207 525.596 518.939 527.646 520.498 529.204C521.321 530.019 525.708 530.834 529.69 531.436C530.725 529.311 528.717 522.752 529.035 521.137C529.378 519.403 541.556 508.617 543.646 506.177C545.735 503.738 548.872 503.747 550.605 500.617C552.337 497.488 545.735 487.389 544.343 485.302C542.952 483.214 542.263 474.87 543.303 471.383C544.343 467.896 538.093 465.816 538.093 463.382C538.093 460.949 544.003 456.766 547.142 455.381C550.281 453.997 549.23 444.237 546.442 441.798C544.897 440.298 543.837 438.368 543.402 436.259C542.967 434.15 543.177 431.958 544.003 429.969C545.745 425.107 533.574 421.278 531.826 421.278C531.542 421.278 531.367 420.965 531.251 420.55C520.383 422.566 492.561 419.67 490.459 418.833C489.084 418.275 485.558 417.013 482.53 415.936C481.611 417.358 480.334 418.514 478.829 419.288C477.323 420.062 475.64 420.427 473.949 420.348C467.231 420.348 466.757 413.621 466.532 410.609C466.307 407.596 439.395 413.163 432.198 420.348C425 427.532 408.306 424.75 407.854 428.687C407.504 431.557 404.999 433.041 403.369 432.241C403.224 432.873 403.244 433.531 403.425 434.152Z" stroke="white" stroke-miterlimit="10" stroke-linecap="round" stroke-linejoin="round" stroke-dasharray="8 8"/>
<path d="M464.894 658.01C464.274 654.886 474.255 640.547 476.745 640.547C478.818 640.547 479.598 626.759 478.716 619.596C474.38 616.515 469.609 614.101 464.559 612.434C464.559 612.434 443.784 611.408 440.32 610.015C436.855 608.621 433.388 614.521 430.272 612.097C429.572 611.604 428.745 611.324 427.889 611.293C427.034 611.261 426.188 611.478 425.454 611.918C424.72 612.358 424.13 613.002 423.755 613.772C423.38 614.541 423.237 615.403 423.342 616.252C424.035 619.709 430.614 621.799 430.614 626.988C430.614 632.178 443.782 639.807 443.431 642.574C443.193 644.516 451.331 649.801 456.186 656.922C458.98 658.756 461.67 660.743 464.243 662.876C464.72 661.299 464.939 659.656 464.894 658.01V658.01Z" stroke="white" stroke-miterlimit="10" stroke-linecap="round" stroke-linejoin="round" stroke-dasharray="8 8"/>
<path d="M443.438 642.577C443.79 639.81 430.622 632.183 430.622 626.992C430.622 621.8 424.042 619.713 423.35 616.255C423.245 615.406 423.388 614.545 423.763 613.775C424.138 613.006 424.728 612.362 425.462 611.922C426.196 611.482 427.042 611.265 427.897 611.296C428.752 611.328 429.58 611.607 430.279 612.101C433.394 614.519 436.859 608.632 440.327 610.018C443.796 611.405 464.567 612.437 464.567 612.437C469.617 614.105 474.388 616.519 478.723 619.599C478.634 618.451 478.39 617.32 477.998 616.237C476.137 611.862 477.998 606.883 473.009 605.013C470.439 604.053 469.371 599.617 468.915 595.523C466.564 596.236 464.578 596.826 463.493 597.101C459.349 598.136 450.543 597.613 447.428 593.469C445.113 590.384 437.914 585.855 434.382 583.745C432.935 585.01 427.408 589.742 424.999 590.029C422.208 590.384 423.96 597.693 421.171 597.693C418.382 597.693 416.3 602.555 415.602 604.65C414.904 606.745 408.658 603.253 405.863 604.295C402.231 605.26 398.537 605.973 394.807 606.427C395.294 609.6 395.104 613.109 397.637 613.109C401.816 613.109 409.475 612.659 409.7 618.219C409.925 623.778 419.904 636.081 423.601 640.261C427.299 644.44 435.672 643.508 436.131 646.987C436.591 650.467 442.631 653.712 449.596 654.179C451.977 654.574 454.235 655.516 456.192 656.931C451.339 649.804 443.2 644.52 443.438 642.577Z" stroke="white" stroke-miterlimit="10" stroke-linecap="round" stroke-linejoin="round" stroke-dasharray="8 8"/>
<path d="M494.937 709.362C498.417 708.679 496.327 705.892 498.767 703.453C501.213 700.844 503.108 697.769 504.34 694.411C504.364 694.32 504.406 694.235 504.463 694.16C504.521 694.085 504.593 694.023 504.675 693.976C499.95 690.429 496.646 687.882 495.598 684.235C494.541 680.523 495.633 673.257 497.301 667.959C494.601 666.037 486.309 660.31 483.702 660.31C481.125 660.31 477.16 666.037 476.176 671.541C482.262 674.786 484.657 677.101 480.441 681.31C476.046 685.72 475.113 700.563 479.975 704.502C484.612 708.259 485.945 715.711 490.427 717.836C491.687 714.094 492.645 709.844 494.937 709.362Z" stroke="white" stroke-miterlimit="10" stroke-linecap="round" stroke-linejoin="round" stroke-dasharray="8 8"/>
<path d="M428.773 538.022C424.629 533.347 414.272 533.347 414.272 533.347C413.712 535.866 412.837 538.304 411.667 540.604C410.365 542.774 402.836 542.744 398.011 541.442C396.642 543.232 390.382 544.631 389.51 547.221C388.462 550.36 380.811 548.618 383.25 556.962C385.689 565.305 379.426 562.544 376.989 561.489C374.551 560.434 363.763 561.839 360.987 564.619C359.768 565.722 358.218 566.39 356.579 566.516C354.94 566.643 353.305 566.22 351.932 565.316C349.5 563.934 344.635 563.229 342.545 566.699C340.455 570.169 336.632 563.934 333.491 564.28C330.35 564.626 331.755 571.237 331.755 572.637C331.755 574.036 336.632 578.196 339.756 576.814C342.88 575.431 346.72 577.154 349.502 578.894C352.284 580.634 357.503 577.504 359.241 575.764C360.979 574.025 370.729 574.017 371.769 574.017C372.81 574.017 373.159 579.599 374.907 580.641C376.654 581.683 383.258 582.381 389.175 582.725C395.092 583.07 403.783 585.853 406.57 585.853C409.358 585.853 413.872 580.976 420.124 580.976C426.376 580.976 429.87 577.154 430.916 577.504L430.976 577.554C431.426 575.619 432.154 574.056 433.516 573.857C436.056 573.509 434.236 569.142 436.056 566.972C437.875 564.803 434.599 560.441 437.875 560.799C441.152 561.156 444.76 561.534 444.76 556.817C444.804 556.014 445.013 555.23 445.375 554.512C445.737 553.794 446.244 553.159 446.863 552.647C444.264 548.569 442.193 544.178 440.698 539.579C440.698 539.579 432.928 542.684 428.773 538.022Z" stroke="white" stroke-miterlimit="10" stroke-linecap="round" stroke-linejoin="round" stroke-dasharray="8 8"/>
<path d="M529.375 551.047C528.017 550.547 526.768 549.789 525.699 548.814C521.333 547.839 517.117 546.557 515.837 545.278C513.252 542.686 502.895 541.129 501.323 540.612C499.751 540.094 489.923 549.938 486.81 549.938C483.697 549.938 470.227 551.495 470.227 555.112C470.227 558.729 453.666 559.277 448.987 555.112C448.193 554.366 447.483 553.536 446.867 552.637C446.248 553.15 445.742 553.785 445.38 554.503C445.018 555.22 444.809 556.005 444.765 556.807C444.765 561.524 441.138 561.161 437.88 560.789C434.622 560.417 437.88 564.794 436.06 566.963C434.24 569.133 436.06 573.507 433.52 573.848C432.158 574.047 431.431 575.61 430.98 577.545C432.071 578.072 434.743 583.414 434.743 583.414C434.743 583.414 434.603 583.544 434.386 583.734C437.921 585.844 445.116 590.373 447.431 593.458C450.546 597.602 459.353 598.125 463.497 597.09C467.64 596.056 485.267 590.358 485.267 590.358C487.466 591.183 489.714 591.871 491.999 592.416C492.609 592.55 494.264 592.818 496.411 593.138C497.678 591.835 501.573 590.708 505.727 586.542C510.597 581.674 517.906 564.271 519.988 562.884C522.07 561.498 527.652 558.359 530.432 556.277C533.212 554.195 532.52 552.105 529.375 551.047Z" stroke="white" stroke-miterlimit="10" stroke-linecap="round" stroke-linejoin="round" stroke-dasharray="8 8"/>
<path d="M465.058 515.213C462.453 513.67 455.197 514.695 454.677 512.623C454.158 510.55 453.66 506.929 450.543 506.929C447.426 506.929 443.286 504.862 441.734 508.479C440.182 512.096 433.962 507.441 433.43 504.847C432.927 502.255 430.33 500.195 423.071 497.59C419.822 496.257 416.77 494.487 414 492.328C413.786 492.91 413.508 493.466 413.172 493.988C411.782 496.083 406.913 492.253 404.823 494.345C402.734 496.436 395.775 496.775 391.954 500.262C388.134 503.749 380.117 505.472 375.597 506.523C371.077 507.575 374.905 511.733 376.637 514.878C378.369 518.022 378.386 525.659 381.864 528.089C385.341 530.519 396.822 537.83 398.214 540.267C398.314 540.458 398.348 540.675 398.313 540.887C398.277 541.098 398.173 541.293 398.017 541.44C402.842 542.742 410.37 542.772 411.672 540.602C412.842 538.303 413.718 535.864 414.277 533.346C414.277 533.346 424.634 533.346 428.778 538.02C432.922 542.694 440.707 539.562 440.707 539.562C440.707 539.562 441.137 540.887 441.835 542.725C442.951 540.163 444.419 537.914 446.196 537.653C450.571 537.033 456.802 536.408 461.162 530.169C463.623 527.054 466.723 524.503 470.254 522.687C468.153 520.134 467.068 516.437 465.058 515.213Z" stroke="white" stroke-miterlimit="10" stroke-linecap="round" stroke-linejoin="round" stroke-dasharray="8 8"/>
<path d="M507.028 526.113C501.846 526.621 499.248 523.519 495.12 525.071C490.991 526.623 484.229 525.071 481.644 523.519C479.06 521.967 475.945 526.621 472.313 524.554C471.516 524.073 470.817 523.446 470.253 522.706C466.722 524.521 463.622 527.072 461.161 530.188C456.792 536.427 450.57 537.052 446.196 537.672C444.419 537.932 442.956 540.182 441.834 542.744C443.261 546.421 445.874 552.353 448.99 555.12C453.664 559.284 470.23 558.752 470.23 555.12C470.23 551.488 483.704 549.945 486.813 549.945C489.922 549.945 499.784 540.083 501.327 540.619C502.869 541.155 513.249 542.694 515.84 545.286C517.128 546.566 521.344 547.848 525.702 548.821C523.949 547.508 522.773 545.568 522.42 543.406C522.42 540.632 527.654 533.323 529.379 531.933C529.514 531.79 529.62 531.622 529.692 531.438C525.702 530.841 521.318 530.026 520.5 529.205C518.946 527.646 512.197 525.579 507.028 526.113Z" stroke="white" stroke-width="0.5" stroke-miterlimit="10" stroke-linecap="round" stroke-linejoin="round" stroke-dasharray="8 8"/>
<path d="M67.782 748.575C73.9838 747.459 66.0813 742.368 64.3825 740.678C62.6836 738.989 64.9407 732.206 68.3402 732.206C71.7398 732.206 68.3402 728.262 63.8187 723.733C59.2971 719.204 63.8187 717.531 67.782 717.531C71.7454 717.531 66.6451 710.754 70.5843 706.802C74.5234 702.85 69.4567 695.519 69.4567 692.127C69.4567 688.734 75.104 687.614 79.6255 683.1C84.1471 678.586 75.677 680.276 75.677 676.898C75.677 673.521 70.0205 672.369 66.0813 675.203C62.1422 678.037 63.2549 675.203 59.8702 675.203C56.4856 675.203 50.2689 676.331 50.2689 672.939C50.2689 669.547 47.448 668.994 44.6272 672.369C43.5098 673.468 42.0181 674.103 40.4517 674.146C40.0405 678.571 39.5828 682.706 40.8778 684.788C43.8885 689.659 37.1564 715.406 31.1314 722.374C25.1063 729.343 30.9137 731.196 37.1583 736.066C43.4028 740.935 39.2553 758.565 39.2553 762.737C39.2553 766.909 44.8188 765.757 51.3128 765.757C55.1812 765.757 59.5483 764.04 63.841 763.282C62.6794 761.791 61.8972 760.04 61.5616 758.18C61.5616 754.777 61.5616 749.705 67.782 748.575Z" stroke="white" stroke-miterlimit="10" stroke-linecap="round" stroke-linejoin="round" stroke-dasharray="8 8"/>
<path d="M250.041 484.444C252.877 481.612 257.838 483.026 260.681 485.864C263.524 488.701 267.77 489.399 272.031 493.651C273.103 494.72 274.246 495.715 275.453 496.628C275.857 493.636 275.935 487.682 277.253 484.602C278.639 481.363 275.857 477.178 278.183 477.178C280.509 477.178 286.992 477.178 286.992 473.006C286.992 468.834 288.852 470.226 290.244 467.896C291.636 465.567 286.071 460.937 285.131 459.54C284.191 458.143 289.31 457.69 293.03 452.136C294.368 450.106 293.811 445.972 292.57 441.502C291.956 443.147 290.709 444.34 288.614 443.082C285.131 440.992 279.813 442.152 272.848 443.549C265.884 444.946 263.803 451.664 266.336 454.443C268.868 457.223 259.62 458.623 258.93 454.918C258.24 451.213 251.277 453.753 251.727 458.623C252.178 463.492 244.069 465.349 244.539 471.376C245.01 477.403 237.117 482.978 232.011 485.992C231.218 486.474 230.396 486.954 229.559 487.434C231.309 488.377 233.196 489.04 235.152 489.399C239.411 489.401 247.208 487.289 250.041 484.444Z" stroke="white" stroke-miterlimit="10" stroke-linecap="round" stroke-linejoin="round" stroke-dasharray="8 8"/>
<path d="M276.427 511.413C273.333 513.145 270.512 516.858 270.94 524.734C274.426 524.635 277.91 525.027 281.287 525.899C280.543 517.323 277.194 514.666 276.326 512.898C276.216 512.662 276.167 512.402 276.185 512.143C276.202 511.883 276.286 511.632 276.427 511.413V511.413Z" stroke="white" stroke-width="0.5" stroke-miterlimit="10" stroke-linecap="round" stroke-linejoin="round" stroke-dasharray="8 8"/>
<path d="M221.114 493.987C221.456 496.432 225.287 502.342 226.675 499.912C228.063 497.482 231.552 503.042 234.676 504.781C237.801 506.521 244.066 508.611 244.415 510.7C244.765 512.79 245.809 517.308 248.944 515.91C252.08 514.513 255.898 509.644 255.898 512.425C255.898 515.207 256.944 520.426 260.419 519.734C263.895 519.042 264.947 525.651 268.421 524.944C269.25 524.814 270.087 524.74 270.927 524.725C270.499 516.848 273.32 513.136 276.414 511.404C277.131 510.019 279.218 508.564 279.555 506.862C280.02 504.547 274.92 499.903 275.376 497.123C275.402 496.978 275.422 496.78 275.437 496.62C274.23 495.708 273.087 494.713 272.015 493.643C267.758 489.393 263.505 488.694 260.665 485.856C257.826 483.019 252.861 481.604 250.025 484.436C247.19 487.268 239.395 489.393 235.14 489.393C233.184 489.034 231.297 488.371 229.546 487.428C226.313 489.464 222.779 490.977 219.074 491.913C219.792 492.888 220.885 492.378 221.114 493.987Z" stroke="white" stroke-miterlimit="10" stroke-linecap="round" stroke-linejoin="round" stroke-dasharray="8 8"/>
<path d="M622.868 608.468C619.623 608.009 615.436 606.624 616.833 604.76C616.921 604.645 617.109 604.412 617.25 604.23C612.904 600.715 611.759 589.344 614.534 586.553C618.069 583.018 608.849 569.535 604.605 564.578C602.61 562.241 598.293 554.489 594.261 546.888C590.579 548.082 587.319 549.422 586.684 550.485C585.6 551.809 584.261 552.903 582.747 553.702C581.234 554.501 579.575 554.989 577.87 555.136C575.079 555.136 572.299 553.739 569.977 556.054C567.654 558.369 564.417 559.301 563.019 557.915C561.622 556.528 556.985 555.135 553.731 555.135C550.476 555.135 540.293 552.344 537.972 552.344C535.949 552.395 533.931 552.569 531.929 552.866C532.453 553.871 532.046 555.071 530.429 556.288C527.649 558.37 522.072 561.498 519.985 562.896C517.897 564.293 510.594 581.689 505.724 586.553C500.855 591.417 496.326 592.122 495.978 593.854C495.63 595.587 501.547 600.123 501.547 602.903C501.463 603.624 501.537 604.355 501.764 605.044C501.99 605.734 502.365 606.366 502.861 606.896C503.356 607.426 503.962 607.842 504.635 608.115C505.308 608.387 506.032 608.51 506.757 608.474C510.584 608.474 506.407 617.521 508.837 618.219C511.267 618.916 526.235 619.951 526.235 623.44C526.235 626.147 527.887 628.425 527.165 630.302C531.374 631.002 534.459 636.722 536.097 636.314C537.957 635.849 550.48 638.631 552.795 638.175C558.367 637.883 563.953 638.037 569.5 638.634C571.582 638.734 573.661 638.37 575.584 637.568C577.508 636.765 579.23 635.545 580.624 633.996C583.878 630.743 595.487 630.284 599.192 630.743C602.897 631.203 610.323 632.141 611.72 634.465C612.448 635.674 616.815 637.492 621.234 638.977C621.757 636.679 621.081 633.678 621.219 630.738C621.452 625.868 624.232 618.457 629.103 617.984C633.974 617.512 637.919 617.519 637.227 609.41C637.212 609.125 637.212 608.915 637.19 608.666C635.594 607.046 633.72 605.727 631.658 604.769C629.829 604.76 624.252 608.662 622.868 608.468Z" stroke="white" stroke-miterlimit="10" stroke-linecap="round" stroke-linejoin="round" stroke-dasharray="8 8"/>
<path d="M629.362 559.297C628.567 556.943 627.077 554.884 625.089 553.393C623.101 551.901 620.709 551.046 618.226 550.941C614.979 550.941 609.41 543.529 605.698 543.98C601.82 544.669 597.997 545.643 594.262 546.892C598.294 554.493 602.611 562.244 604.605 564.581C608.85 569.538 618.071 583.003 614.534 586.557C611.76 589.336 612.904 600.715 617.251 604.233C619.266 601.606 626.108 592.987 626.108 590.382C626.108 587.602 626.581 582.026 632.137 583.423C637.693 584.821 642.806 587.135 642.806 585.284C642.806 583.432 641.416 577.398 639.101 575.068C634.873 570.485 631.567 565.13 629.362 559.297Z" stroke="white" stroke-miterlimit="10" stroke-linecap="round" stroke-linejoin="round" stroke-dasharray="8 8"/>
<path d="M599.212 630.734C595.507 630.274 583.898 630.734 580.644 633.986C579.25 635.536 577.529 636.756 575.605 637.558C573.681 638.361 571.603 638.725 569.521 638.625C563.973 638.028 558.387 637.874 552.815 638.166C550.5 638.625 537.974 635.843 536.117 636.305C534.47 636.712 531.385 630.992 527.186 630.293C526.93 630.912 526.484 631.433 525.913 631.781C522.783 633.878 522.426 639.425 525.913 642.574C529.4 645.722 533.914 652.662 530.782 652.662C527.651 652.662 525.215 656.834 525.572 658.922C525.93 661.01 524.525 665.533 525.572 666.581C526.62 667.628 533.923 674.582 534.264 676.669C534.576 678.504 537.57 679.461 537.343 681.065C543.188 680.629 555.578 679.915 558.395 681.314C562.117 683.175 575.107 684.094 575.107 684.094C578.806 684.094 582.06 682.704 581.135 680.389C580.35 678.43 585.182 677.135 588.669 676.772C588.065 674.63 587.652 672.864 588.554 672.492C590.286 671.802 600.388 670.412 604.556 672.492C605.623 672.874 606.772 672.966 607.885 672.759C608.999 672.551 610.038 672.052 610.896 671.312C610.337 669.362 609.803 667.82 608.735 667.623C606.173 667.165 602.249 656.494 605.488 655.794C608.728 655.094 612.913 643.958 618.015 642.343C618.821 642.148 619.556 641.729 620.133 641.133C620.71 640.538 621.107 639.791 621.277 638.979C616.857 637.49 612.49 635.676 611.763 634.466C610.343 632.131 602.911 631.206 599.212 630.734Z" stroke="white" stroke-miterlimit="10" stroke-linecap="round" stroke-linejoin="round" stroke-dasharray="8 8"/>
<path d="M504.67 693.976C504.852 693.855 505.054 693.766 505.267 693.714C505.31 693.714 505.34 693.684 505.397 693.671C505.685 693.609 505.977 693.567 506.27 693.546C506.313 693.534 506.358 693.529 506.402 693.531C507.757 693.416 509.565 693.496 511.426 693.438C511.536 693.438 511.674 693.438 511.798 693.438C512.213 693.416 512.621 693.386 513.043 693.358C513.201 693.329 513.361 693.329 513.529 693.312C514.058 693.246 514.583 693.149 515.101 693.021C519.273 691.987 520.322 687.462 522.402 688.502C524.483 689.542 535.63 683.865 537.02 681.783C537.18 681.575 537.28 681.328 537.311 681.068C537.538 679.461 534.544 678.508 534.231 676.673C533.891 674.591 526.589 667.624 525.54 666.584C525.31 666.273 525.187 665.894 525.192 665.507C525.192 665.462 525.169 665.42 525.169 665.377C525.146 664.81 525.168 664.243 525.234 663.68C514.353 665.258 498.207 668.622 498.207 668.622C498.207 668.622 497.815 668.332 497.277 667.967C495.602 673.266 494.518 680.53 495.575 684.243C496.641 687.882 499.945 690.43 504.67 693.976Z" stroke="white" stroke-miterlimit="10" stroke-linecap="round" stroke-linejoin="round" stroke-dasharray="8 8"/>
<path d="M797.302 532.61C797.302 531.228 802.172 528.789 801.824 526.009C801.476 523.229 797.302 522.871 792.783 520.44C788.263 518.008 783.727 519.042 779.549 516.96C775.372 514.878 766.679 516.262 766.679 514.878C766.679 513.493 761.119 508.961 759.721 506.523C758.324 504.086 753.81 505.474 751.028 507.213C748.246 508.953 745.796 509.651 743.027 507.919C740.258 506.186 737.808 503.392 735.378 504.432C732.947 505.472 728.411 504.782 729.459 501.295C730.506 497.808 724.939 490.173 722.499 489.133C720.06 488.093 712.753 489.816 711.021 486.342C709.288 482.868 706.144 480.075 707.541 477.643C708.938 475.211 707.193 468.589 705.452 465.809C703.71 463.029 695.015 463.375 692.583 464.417C690.151 465.459 684.569 463.375 682.137 464.767C679.705 466.159 678.315 468.589 674.828 468.589C674.018 468.716 673.19 468.616 672.434 468.299C671.678 467.983 671.025 467.463 670.548 466.797C667.305 467.967 663.909 468.657 660.467 468.844C660.467 468.844 651.163 476.26 651.163 479.04C651.163 481.82 650.72 486.465 648.383 484.152C646.046 481.839 636.329 481.822 634.013 483.221C631.696 484.621 627.98 477.652 623.801 479.974C619.622 482.297 614.062 476.729 613.59 479.044C613.117 481.359 607.103 479.511 602.918 477.654C598.734 475.797 591.322 478.584 588.542 475.332C585.762 472.079 567.663 472.087 561.638 472.087C555.613 472.087 554.208 475.315 551.417 478.106C548.905 480.631 545.988 480.106 543.024 479.976C543.12 481.815 543.568 483.619 544.341 485.29C545.733 487.378 552.342 497.467 550.602 500.606C548.862 503.745 545.733 503.736 543.643 506.166C541.554 508.596 529.375 519.392 529.033 521.126C528.69 522.86 531.122 530.523 529.375 531.918C527.628 533.314 522.416 540.617 522.416 543.391C522.416 546.166 526.245 550.008 529.375 551.048C530.423 551.308 531.335 551.952 531.93 552.853C533.931 552.556 535.949 552.382 537.972 552.33C540.294 552.33 550.5 555.122 553.732 555.122C556.964 555.122 561.631 556.504 563.021 557.901C564.411 559.299 567.656 558.354 569.978 556.041C572.3 553.728 575.087 555.123 577.871 555.123C579.576 554.976 581.235 554.488 582.749 553.689C584.263 552.89 585.601 551.796 586.685 550.472C588.075 548.155 601.999 544.428 605.698 543.959C609.397 543.49 614.979 550.92 618.226 550.92C620.709 551.026 623.102 551.881 625.09 553.372C627.078 554.864 628.567 556.922 629.363 559.276C631.568 565.107 634.875 570.459 639.102 575.041C641.417 577.37 642.807 583.399 642.807 585.256C642.807 587.113 637.712 584.789 632.137 583.395C626.563 582.001 626.109 587.574 626.109 590.354C626.109 593.134 618.226 602.873 616.835 604.736C615.443 606.598 619.626 607.985 622.869 608.442C624.252 608.638 629.828 604.736 631.678 604.736C633.74 605.693 635.613 607.013 637.21 608.632C636.677 601.375 638.186 601.781 644.664 596.861C651.396 591.759 652.088 582.243 658.117 581.079C664.145 579.914 666.698 577.126 675.52 578.518C684.342 579.91 671.117 585.477 677.128 588.724C681.1 590.864 690.443 589.807 696.665 590.135C704.761 588.809 713.028 588.92 721.085 590.464C725.153 586.804 732.994 581.802 738.141 581.311C745.099 580.514 751.857 578.473 758.093 575.284C762.205 573.632 766.482 572.427 770.852 571.691C770.097 568.415 769.122 564.557 771.204 564.248C773.634 563.912 780.943 555.897 783.382 555.897C785.822 555.897 796.251 557.985 796.251 556.255C796.251 554.524 799.738 548.596 799.031 546.849C798.324 545.101 794.861 542.686 795.561 540.939C796.26 539.192 801.121 539.207 801.121 537.11C801.121 535.013 797.302 534.008 797.302 532.61Z" stroke="white" stroke-miterlimit="10" stroke-linecap="round" stroke-linejoin="round" stroke-dasharray="8 8"/>
<path d="M540.066 375.953C544.316 375.953 554.261 378.078 559.931 375.953C565.601 373.828 565.595 380.219 569.147 379.488C572.699 378.757 579.781 383.755 584.033 387.303C586.534 389.227 589.19 390.941 591.973 392.428C592.747 391.1 593.785 389.945 595.024 389.035C598.736 386.256 602.441 387.638 605.688 387.638C608.935 387.638 609.4 383.933 611.73 382.076C613.193 381.075 614.858 380.404 616.607 380.111C615.362 377.549 615.304 372.542 613.228 370.473C610.792 368.043 607.312 363.858 608.358 361.424C608.992 359.97 609.164 358.357 608.852 356.801C608.54 355.246 607.758 353.824 606.613 352.727C605.457 351.595 604.553 350.23 603.963 348.723C598.307 347.995 590.693 347.18 588.99 347.748C586.199 348.678 575.077 339.857 573.215 338.459C572 337.557 563.746 338.029 556.312 338.721C552.032 343.468 555.119 346.955 554.894 354.242C554.661 361.666 546.538 360.276 542.141 360.276C537.744 360.276 530.53 347.048 528.222 344.028C525.915 341.008 518.461 347.75 513.132 350.987C507.803 354.225 510.585 360.501 506.873 363.516C503.16 366.53 500.846 371.638 504.543 378.366C504.696 378.641 504.798 378.924 504.945 379.194C509.58 378.831 514.522 377.972 517.371 375.947C522.346 372.395 535.827 375.953 540.066 375.953Z" stroke="white" stroke-miterlimit="10" stroke-linecap="round" stroke-linejoin="round" stroke-dasharray="8 8"/>
<path d="M513.727 401.444C515.466 403.889 521.037 405.972 523.125 404.931C525.213 403.891 531.817 407.363 531.817 410.141C531.817 412.919 530.084 421.283 531.817 421.283C533.396 421.283 543.42 424.393 544.097 428.585C547.946 428.572 551.791 428.845 555.6 429.4C559.322 430.33 561.627 428.01 563.475 425.688C565.323 423.366 571.824 422.441 573.681 422.441C575.538 422.441 575.542 417.339 576.003 415.009C576.465 412.679 581.113 408.523 583.894 407.598C586.676 406.673 586.207 403.421 588.997 403.421C591.786 403.421 591.311 399.699 590.857 397.379C590.612 395.646 591.014 393.885 591.985 392.429C589.202 390.942 586.546 389.228 584.045 387.305C579.786 383.753 572.695 378.781 569.159 379.49C565.624 380.199 565.607 373.828 559.943 375.954C554.279 378.081 544.328 375.954 540.078 375.954C535.828 375.954 522.355 372.402 517.39 375.954C514.542 377.979 509.599 378.839 504.964 379.201C506.43 381.873 507.065 384.921 506.788 387.955C506.512 390.99 505.335 393.872 503.411 396.234C500.886 399.087 502.356 399.465 504.205 400.587C508.014 400.224 512.329 399.487 513.727 401.444Z" stroke="white" stroke-miterlimit="10" stroke-linecap="round" stroke-linejoin="round" stroke-dasharray="8 8"/>
<path d="M339.753 576.81C336.631 578.193 331.752 574.019 331.752 572.633C331.424 570.446 331.428 568.222 331.765 566.037C328.856 564.478 325.825 563.156 322.703 562.084C318.063 560.694 315.748 560.694 312.043 562.542C309.673 563.722 303.142 563.394 298.73 563.007C298.339 564.392 297.718 565.322 296.612 565.322C294.77 565.5 293.024 566.226 291.598 567.406C290.172 568.585 289.132 570.165 288.611 571.941C287.919 575.413 280.61 578.193 278.515 584.46C276.42 590.726 277.479 593.508 280.612 589.67C283.745 585.831 287.569 587.238 287.569 590.369C287.569 593.501 291.747 593.839 290.351 598.026C290.329 598.121 290.329 598.171 290.312 598.273C295.068 597.851 301.681 597.326 303.694 597.326C306.941 597.326 310.186 587.122 311.573 586.19C312.959 585.258 316.688 593.616 320.4 596.876C324.112 600.136 324.575 594.085 324.575 591.294C324.575 588.503 327.82 587.584 330.139 588.049C332.457 588.514 337.559 589.439 337.559 586.188C337.559 582.937 340.35 584.34 342.193 584.34C344.035 584.34 344.526 580.619 344.526 580.619L347.563 577.796C346.412 577.072 345.116 576.608 343.767 576.438C342.418 576.268 341.048 576.395 339.753 576.81V576.81Z" stroke="white" stroke-width="0.5" stroke-miterlimit="10" stroke-linecap="round" stroke-linejoin="round" stroke-dasharray="8 8"/>
<path d="M293.027 452.138C289.306 457.692 284.215 458.158 285.128 459.542C286.042 460.926 291.641 465.584 290.242 467.898C288.842 470.213 286.989 468.838 286.989 473.008C286.989 477.178 280.488 477.18 278.18 477.18C275.873 477.18 278.636 481.364 277.25 484.604C275.864 487.843 275.854 494.345 275.389 497.132C274.924 499.92 280.041 504.556 279.568 506.871C279.096 509.186 275.389 511.049 276.327 512.898C277.19 514.666 280.544 517.323 281.288 525.899C282.607 526.16 283.821 526.803 284.779 527.748C285.96 529.294 287.489 530.54 289.242 531.385C290.995 532.23 292.922 532.65 294.867 532.611C299.396 532.611 301.134 535.753 303.222 535.402C305.31 535.05 310.883 536.807 306.363 540.628C301.843 544.45 301.134 548.977 300.098 553.499C299.421 556.432 299.458 560.493 298.734 563.011C303.146 563.398 309.677 563.726 312.047 562.546C315.752 560.698 318.067 560.698 322.707 562.088C325.829 563.16 328.86 564.482 331.769 566.04C332.054 565.11 332.549 564.395 333.492 564.28C336.633 563.943 340.457 570.195 342.546 566.699C344.636 563.203 349.502 563.934 351.934 565.316C353.307 566.221 354.941 566.643 356.58 566.516C358.219 566.39 359.77 565.722 360.988 564.619C363.779 561.839 374.556 560.449 376.99 561.489C379.424 562.529 385.682 565.316 383.252 556.962C380.822 548.607 388.462 550.36 389.511 547.221C390.561 544.082 399.6 542.709 398.21 540.269C396.82 537.83 385.339 530.523 381.86 528.091C378.38 525.659 378.382 517.987 376.633 514.88C374.884 511.772 371.066 507.571 375.593 506.525C380.12 505.479 388.119 503.743 391.95 500.264C395.782 496.784 402.73 496.434 404.819 494.347C406.909 492.259 411.778 496.085 413.168 493.989C414.558 491.894 415.598 487.728 413.524 485.298C411.449 482.868 410.037 478.687 409.696 472.777C409.356 466.868 407.607 467.195 407.607 464.423C407.607 461.65 406.565 458.159 404.125 456.762C401.686 455.365 400.648 454.332 403.08 450.51C405.511 446.688 404.469 436.927 403.422 434.154C403.237 433.535 403.214 432.878 403.355 432.247C402.995 432.059 402.686 431.785 402.457 431.45C402.227 431.115 402.083 430.729 402.038 430.325C401.338 426.613 398.798 425.223 392.764 425.223C386.729 425.223 396.468 419.188 394.146 416.174C391.824 413.16 385.799 421.736 380.245 419.879C374.69 418.022 367.484 426.391 362.614 430.09C357.745 433.789 350.778 429.4 354.49 424.056C358.203 418.712 354.49 419.188 348.919 421.284C343.348 423.379 336.628 420.818 337.318 415.701C337.445 414.428 337.122 413.15 336.404 412.09C334.493 412.487 332.526 412.532 330.599 412.222C325.892 411.213 321.085 410.744 316.271 410.824C318.115 413.524 320.114 416.167 318.986 418.256C316.904 422.208 320.156 425.92 323.161 431.707C326.167 437.494 316.675 434.262 316.437 437.974C316.199 441.686 307.63 437.742 304.839 436.346C302.048 434.951 292.778 435.887 293.014 438.207C293.094 439.324 292.937 440.446 292.554 441.498C293.809 445.973 294.365 450.108 293.027 452.138Z" stroke="white" stroke-miterlimit="10" stroke-linecap="round" stroke-linejoin="round" stroke-dasharray="8 8"/>
<path d="M644.207 250.33C647.929 241.981 664.603 235.531 667.412 228.064C668.795 224.343 669.262 222.482 663.235 215.529C657.208 208.575 643.755 203.933 643.282 200.228C642.81 196.523 653.494 196.051 653.021 191.404C652.549 186.758 647.002 186.775 644.665 183.063C642.328 179.351 647.456 177.013 646.995 175.173C646.533 173.333 639.57 172.391 639.103 170.062C638.636 167.732 643.755 168.214 642.808 165.432C641.861 162.651 637.256 157.535 640.501 153.364C643.746 149.192 650.714 153.364 645.597 144.092C640.48 134.82 632.609 123.213 630.754 120.42C628.899 117.627 632.615 112.993 635.406 111.159C638.197 109.324 645.143 102.337 645.143 99.5498C645.143 96.7624 636.329 89.3363 634.012 87.9537C631.696 86.5712 626.588 87.0234 624.273 82.3716C621.959 77.7198 619.631 76.3521 621.936 73.5629C623.774 71.1888 624.612 68.1913 624.273 65.2083C624.273 62.4265 629.37 64.7412 630.287 60.5714C630.915 58.3913 632.113 56.4185 633.759 54.8571C633.946 51.948 633.946 49.03 633.759 46.121C633.015 41.6385 620.343 40.1518 617.366 34.9343C614.389 29.7169 606.929 31.9572 604.687 34.9343C602.445 37.9115 589.037 34.19 589.037 38.6669C589.037 43.1438 579.361 43.8863 579.361 49.0982C579.361 54.31 583.827 63.2564 576.384 62.5214C568.941 61.7864 574.151 65.4986 569.674 71.4529C565.197 77.4072 565.195 67.7184 560.728 69.2107C556.26 70.703 551.052 64.7338 548.804 68.4664C546.557 72.199 539.116 69.2107 531.661 67.7221C524.207 66.2335 520.488 55.8135 514.519 55.0562C510.559 54.5687 506.331 57.7207 504.117 62.7075C509.885 66.4419 513.676 71.7413 521.223 75.1743C529.41 78.8958 544.327 83.3615 543.6 88.5901C542.843 93.8001 540.602 101.254 544.327 103.496C548.053 105.739 543.6 115.422 548.06 117.662C552.52 119.902 551.046 131.07 547.316 131.07C543.585 131.07 548.06 137.025 550.306 139.258C551.318 140.294 552.142 143.32 552.513 147.004C556.872 148.339 561.098 150.079 565.134 152.201C571.401 154.992 570.463 159.378 570.703 164.255C570.943 169.131 571.153 171.898 567.923 169.816C564.693 167.734 561.189 169.816 559.334 176.783C557.479 183.749 548.663 192.091 543.332 192.556C538.001 193.021 538.462 198.585 534.051 199.74C529.639 200.896 525.476 203.462 525.709 208.324C525.942 213.186 519.215 213.659 514.798 213.659C510.38 213.659 511.326 221.542 507.839 223.625C504.352 225.707 505.048 228.501 508.304 232.679C511.56 236.856 508.771 240.57 509.921 243.585C511.071 246.599 516.195 253.556 512.712 261.207C509.229 268.859 505.528 278.378 508.54 277.453C511.553 276.529 518.514 283.722 523.158 283.255C527.802 282.788 528.267 289.734 532.664 288.35C537.061 286.965 537.069 292.514 549.837 292.071C562.605 291.628 588.335 280.94 598.547 280.94C603.283 280.98 608.006 280.443 612.612 279.34C614.809 275.933 617.321 272.74 620.116 269.804C626.59 263.31 640.501 258.679 644.207 250.33Z" stroke="white" stroke-miterlimit="10" stroke-linecap="round" stroke-linejoin="round" stroke-dasharray="8 8"/>
<path d="M303.221 535.398C301.133 535.753 299.395 532.607 294.866 532.607C292.921 532.647 290.993 532.227 289.24 531.383C287.487 530.539 285.957 529.294 284.775 527.748C282.688 524.957 271.914 524.269 268.431 524.957C264.947 525.646 263.904 519.046 260.43 519.747C256.956 520.449 255.908 515.218 255.908 512.438C255.908 509.658 252.084 514.526 248.955 515.924C245.825 517.321 244.775 512.788 244.426 510.713C244.076 508.639 237.816 506.536 234.687 504.795C231.557 503.053 228.077 497.486 226.685 499.925C225.294 502.364 221.466 496.445 221.124 494.001C220.895 492.391 219.803 492.901 219.096 491.933C217.936 492.195 216.748 492.307 215.56 492.266C209.991 492.034 205.122 496.445 206.057 505.734C206.993 515.023 199.32 515.931 189.812 516.623C180.303 517.315 183.554 524.747 179.613 527.761C175.672 530.776 161.75 526.145 159.889 521.05C158.029 515.955 145.515 521.05 150.844 527.062C156.188 533.104 155.945 541.453 152.934 543.767C149.923 546.082 143.413 540.063 139.239 543.068C135.065 546.073 134.835 540.288 129.749 538.448C124.643 536.576 122.546 540.747 114.437 540.063C106.328 539.378 101.673 543.993 104.691 547.48C107.709 550.966 104.226 554.199 106.552 557.228C108.878 560.257 119.545 559.768 127.423 563.952C135.302 568.137 137.164 564.637 141.113 567.665C145.061 570.692 145.99 568.815 146.219 574.624C146.447 580.433 150.859 585.974 158.518 588.077C166.177 590.179 160.369 595.268 162.695 600.371C165.021 605.473 159.212 612.891 160.369 619.164C161.527 625.436 156.657 645.603 152.949 647.458C152.647 647.558 152.335 647.62 152.018 647.644C155.494 649.376 159.152 650.891 160.935 652.069C164.327 654.341 171.651 656.581 176.178 659.408C180.705 662.234 188.593 661.679 188.593 658.272C188.593 654.901 193.103 657.156 195.931 659.973C198.76 662.79 209.481 663.367 214.557 664.487C218.837 665.434 225.087 664.837 230.675 664.952C230.446 663.592 230.131 662.248 229.731 660.928C226.94 651.873 235.057 646.539 242.706 645.372C250.356 644.205 267.067 648.852 271.486 651.633C275.905 654.415 281.919 653.729 289.578 645.607C292.169 642.574 295.579 640.352 299.401 639.208C299.774 637.375 300.365 635.593 301.161 633.901C302.214 631.11 297.337 631.804 293.861 631.454C292.987 631.419 292.14 631.143 291.413 630.655C290.687 630.168 290.11 629.488 289.747 628.692C289.384 627.896 289.249 627.015 289.356 626.147C289.464 625.279 289.811 624.458 290.357 623.775C292.797 619.945 288.275 619.596 285.838 615.774C283.4 611.952 286.882 612.994 288.964 611.954C291.046 610.913 293.841 606.727 292.094 605.692C290.346 604.658 288.964 602.213 290.357 598.035C291.751 593.858 287.576 593.508 287.576 590.378C287.576 587.249 283.748 585.849 280.618 589.679C277.489 593.508 276.441 590.726 278.521 584.469C280.602 578.211 287.925 575.422 288.618 571.95C289.138 570.174 290.178 568.594 291.604 567.415C293.03 566.235 294.777 565.51 296.619 565.331C299.75 565.331 299.049 558.022 300.1 553.505C301.151 548.987 301.836 544.454 306.365 540.634C310.894 536.814 305.308 535.056 303.221 535.398ZM328.05 653.474C325.49 653.241 324.796 657.871 318.309 661.83C311.823 665.79 318.358 683.58 324.796 682.7C331.524 681.775 330.597 653.706 328.05 653.474Z" stroke="white" stroke-miterlimit="10" stroke-linecap="round" stroke-linejoin="round" stroke-dasharray="8 8"/>
<path d="M230.648 664.923C225.066 664.807 218.812 665.405 214.53 664.458C209.454 663.341 198.724 662.77 195.905 659.943C193.086 657.117 188.566 654.871 188.566 658.243C188.566 661.65 180.662 662.208 176.151 659.378C171.641 656.548 164.3 654.311 160.908 652.039C159.126 650.861 155.467 649.347 151.992 647.614C147.282 648.532 133.757 643.56 124.847 644.652C115.337 645.809 84.9424 643.255 73.1193 644.192C61.2963 645.13 60.5911 639.325 54.0972 639.325C47.6032 639.325 50.3925 647.192 41.1112 647.432C31.8299 647.672 30.9182 653.466 37.6298 658.81C41.461 661.852 40.9995 668.257 40.4562 674.139C42.0225 674.095 43.5143 673.46 44.6317 672.362C47.4525 668.987 50.2734 669.532 50.2734 672.931C50.2734 676.331 56.4826 675.196 59.8747 675.196C63.2668 675.196 62.1225 678.026 66.0858 675.196C70.0491 672.366 75.6815 673.501 75.6815 676.891C75.6815 680.281 84.1385 678.566 79.63 683.093C75.1215 687.62 69.4611 688.742 69.4611 692.119C69.4611 695.496 74.5446 702.833 70.5887 706.795C66.6328 710.756 71.7238 717.523 67.7865 717.523C63.8492 717.523 59.3109 719.213 63.8232 723.725C68.3354 728.238 71.7238 732.199 68.3447 732.199C64.9656 732.199 62.6937 738.974 64.387 740.671C66.0802 742.368 73.9883 747.442 67.7865 748.568C61.5847 749.693 61.5661 754.77 61.5661 758.163C61.9017 760.024 62.6839 761.775 63.8455 763.266C66.6244 762.597 69.5429 762.817 72.1908 763.893C78.6829 766.898 82.4471 783.058 91.2111 781.973C94.9326 781.508 93.0718 778.726 94.9326 776.864C96.7933 775.001 100.26 776.412 103.979 776.412C107.699 776.412 109.549 771.069 118.353 770.842C127.158 770.615 132.741 769.912 138.302 770.145C143.864 770.377 148.278 768.513 149.664 764.576C151.05 760.638 155.702 757.159 161.967 756.228C168.232 755.298 167.302 748.785 167.757 745.096C168.213 741.406 178.672 735.809 179.355 733.029C180.038 730.249 173.323 719.576 179.586 710.062C185.849 700.548 192.587 700.098 192.587 694.754C192.587 689.864 199.072 688.035 206.967 687.088C214.856 686.18 217.407 680.836 224.139 678.056C229.77 675.715 231.783 671.556 230.648 664.923Z" stroke="white" stroke-miterlimit="10" stroke-linecap="round" stroke-linejoin="round" stroke-dasharray="8 8"/>
<path d="M218.002 719.836C219.182 727.335 231.958 717.161 229.1 715.064C223.249 710.815 216.824 712.336 218.002 719.836Z" stroke="white" stroke-width="0.885" stroke-miterlimit="10" stroke-linecap="round" stroke-linejoin="round" stroke-dasharray="8 8"/>
<path d="M382.062 603.03C385.804 601.522 390.019 600.918 392.078 601.748C393.891 602.477 394.481 604.382 394.808 606.422C398.538 605.967 402.233 605.254 405.864 604.289C408.656 603.247 414.911 606.727 415.604 604.645C416.296 602.563 418.395 597.687 421.173 597.687C423.951 597.687 422.213 590.379 425 590.023C427.788 589.668 434.75 583.423 434.75 583.423C434.75 583.423 431.97 577.861 430.928 577.504C429.886 577.147 426.399 580.976 420.136 580.976C413.873 580.976 409.365 585.853 406.583 585.853C403.801 585.853 395.097 583.073 389.187 582.725C387.097 582.606 384.92 582.431 382.898 582.221C382.093 589.126 381.814 596.082 382.062 603.03Z" stroke="white" stroke-miterlimit="10" stroke-linecap="round" stroke-linejoin="round" stroke-dasharray="8 8"/>
<path d="M588.651 676.768C585.164 677.14 580.332 678.426 581.117 680.385C582.048 682.7 578.788 684.09 575.089 684.09C575.089 684.09 562.09 683.173 558.377 681.31C555.568 679.911 543.17 680.625 537.325 681.061C537.295 681.321 537.194 681.568 537.035 681.775C535.645 683.857 524.507 689.536 522.417 688.494C520.327 687.452 519.287 691.979 515.116 693.014C510.944 694.049 504.679 692.666 504.336 694.411C503.106 697.769 501.212 700.844 498.767 703.453C496.328 705.892 498.417 708.679 494.938 709.362C492.646 709.844 491.693 714.094 490.424 717.836C490.643 717.973 490.873 718.092 491.11 718.193C493.782 719.212 496.045 721.079 497.553 723.508C499.061 725.937 499.731 728.793 499.46 731.639C498.767 737.446 506.884 739.543 510.596 735.351C514.308 731.159 524.747 737.679 524.747 740.461C524.747 743.242 514.075 737.446 508.034 741.858C501.992 746.27 512.686 750.432 511.296 755.069C509.906 759.706 514.075 766.191 519.412 765.971C524.749 765.751 530.774 774.555 534.021 772.923C537.267 771.291 530.083 759.014 531.241 757.157C532.398 755.3 538.89 760.404 542.137 756.684C545.384 752.965 539.822 750.198 534.953 750.423C530.083 750.648 534.72 743.931 540.52 747.41C546.32 750.89 549.104 746.48 551.87 746.011C554.637 745.542 555.35 735.582 546.766 733.26C538.183 730.937 539.348 739.534 533.773 733.71C528.213 727.942 538.883 730.24 538.883 725.368C538.883 720.497 530.301 713.54 526.124 707.738C521.946 701.936 531.931 699.164 534.238 703.343C536.546 707.522 542.822 706.821 546.766 705.191C550.711 703.561 542.595 696.144 549.781 693.364C556.967 690.584 556.98 695.45 559.302 696.384C561.624 697.318 563.705 690.573 571.122 690.573C574.988 690.573 578.408 693.135 581.728 695.61C583.745 693.392 585.395 692.11 585.395 690.225C585.395 687.793 589.924 686.745 589.924 682.916C589.748 680.823 589.321 678.759 588.651 676.768V676.768ZM575.548 793.807C571.827 791.725 555.13 795.197 550.735 791.027C546.34 786.858 537.325 794.315 541.212 794.965C546.774 795.895 555.13 800.767 564.179 800.992C573.228 801.217 585.514 796.822 585.296 794.5C585.079 792.177 579.262 795.899 575.548 793.817V793.807Z" stroke="white" stroke-miterlimit="10" stroke-linecap="round" stroke-linejoin="round" stroke-dasharray="8 8"/>
<path d="M77.7192 428.838C75.8184 427.465 74.0777 425.883 72.5296 424.121C66.5753 417.112 64.1061 422.722 63.4233 426.931C62.705 431.138 57.1117 425.526 53.5986 424.834C50.0856 424.142 54.6518 417.467 57.1117 415.716C58.7491 414.551 60.3717 411.305 61.3802 406.785C60.7166 406.796 60.0568 406.682 59.4357 406.448C52.9455 403.901 43.8894 403.901 43.6624 409.697C43.4354 415.493 50.8485 413.409 51.0848 417.114C51.3211 420.818 43.6624 419.894 38.3202 423.613C32.9781 427.333 27.1857 421.066 21.6221 423.848C16.0586 426.629 27.649 429.888 23.4736 435.682C19.2981 441.476 23.7043 441.245 30.6671 446.813C37.6299 452.38 26.4917 453.772 26.4917 460.039C26.4917 466.306 17.91 466.067 16.0493 470.245C14.1886 474.422 23.4736 482.764 31.5975 482.764C37.3955 482.764 50.8485 479.052 58.7417 471.635C66.6349 464.218 70.7936 471.378 77.9853 467.686C85.1769 463.995 80.7763 436.835 77.9853 431.261C77.7778 430.897 77.6471 430.494 77.6014 430.077C77.5556 429.66 77.5957 429.239 77.7192 428.838V428.838Z" stroke="white" stroke-miterlimit="10" stroke-linecap="round" stroke-linejoin="round" stroke-dasharray="8 8"/>
<path d="M81.0118 403.651C75.1412 397.989 67.5811 406.87 61.3793 406.768C60.3708 411.295 58.7483 414.542 57.1108 415.699C54.651 417.46 50.1015 424.114 53.5978 424.817C57.0941 425.52 62.7042 431.121 63.4224 426.914C64.1053 422.705 66.5707 417.095 72.5288 424.104C74.0768 425.866 75.8175 427.448 77.7183 428.821C78.6785 425.641 86.0097 425.1 89.813 421.265C94.4537 416.637 87.5057 409.913 81.0118 403.651ZM207.885 461.174C208.358 454.215 193.046 449.352 191.416 453.05C189.786 456.747 186.316 456.312 183.753 452.14C181.191 447.968 186.087 444.01 183.536 443.553C180.985 443.095 177.736 437.284 178.437 434.967C179.139 432.651 174.487 417.806 166.601 415.949C158.716 414.092 157.556 402.955 156.17 396.928C154.784 390.902 149.658 394.137 145.728 389.037C141.798 383.937 135.049 386.49 131.569 386.722C128.09 386.955 131.569 380.21 137.131 376.516C142.693 372.823 149.204 353.071 149.204 349.147C149.204 345.223 124.847 345.426 120.208 347.75C115.569 350.074 110.928 344.27 114.864 342.64C118.799 341.01 127.161 332.899 126.7 329.654C126.239 326.409 132.505 323.393 129.022 320.373C125.539 317.353 125.077 324.327 122.063 326.64C119.049 328.953 112.317 328.272 105.13 326.874C97.9444 325.477 95.1607 335.681 95.3896 340.085C95.6185 344.49 87.0368 347.043 88.4249 350.755C89.813 354.467 86.8079 357.249 84.4932 355.153C82.1785 353.058 79.6237 347.969 74.9793 351.681C70.335 355.393 80.314 360.27 86.3297 360.976C92.3455 361.681 81.704 366.07 80.5392 372.549C79.3818 379.062 88.4193 376.271 88.892 380.908C89.3646 385.545 75.8985 386.25 75.8985 390.645C75.8985 395.072 83.5554 388.565 87.0312 386.715C90.5071 384.865 85.1854 397.604 93.5438 396.221C101.902 394.839 99.5632 383.47 102.579 383.928C105.596 384.385 101.193 389.955 103.748 394.824C106.303 399.694 97.7099 407.125 98.177 410.607C98.644 414.088 115.34 414.084 120.673 408.515C126.006 402.946 128.553 408.982 124.85 413.167C121.148 417.352 122.763 421.282 127.409 422.914C132.055 424.545 133.676 424.994 131.588 428.682C129.498 432.403 131.344 439.355 130.183 442.834C129.022 446.314 114.646 445.854 114.181 443.541C113.716 441.229 107.682 442.834 109.319 446.081C110.956 449.328 104.206 452.813 104.667 455.835C105.129 458.857 113.716 458.148 113.941 461.868C114.166 465.587 107.678 469.979 98.8691 472.533C90.0605 475.088 100.715 482.047 104.89 479.025C109.066 476.004 108.143 481.108 114.17 481.108C120.197 481.108 123.929 485.985 130.639 483.437C137.349 480.89 137.14 483.437 132.033 487.374C126.925 491.312 119.278 487.149 114.637 489.697C109.996 492.244 91.1248 509.941 94.6918 514.294C96.7814 516.833 99.5539 510.581 106.277 507.794C112.999 505.007 114.162 509.642 117.889 510.107C121.616 510.572 121.825 502.458 124.841 503.15C127.857 503.842 130.639 500.602 136.205 501.533C138.384 501.921 140.623 501.81 142.754 501.207C144.884 500.605 146.85 499.527 148.504 498.055C151.295 495.738 158.701 502.683 161.034 501.068C163.367 499.452 173.553 497.581 178.661 497.806C183.768 498.031 196.983 492.011 200.453 488.764C203.924 485.517 198.369 484.835 193.736 485.519C189.103 486.204 190.015 480.882 194.894 476.246C199.772 471.609 207.426 468.131 207.885 461.174ZM68.4798 344.73C74.7468 344.503 81.9329 333.831 78.9241 330.804C75.9153 327.777 63.8187 344.893 68.4798 344.728V344.73ZM158.256 294.393C162.197 290.462 166.83 275.381 160.809 277.003C154.788 278.626 156.535 296.116 158.256 294.392V294.393Z" stroke="white" stroke-miterlimit="10" stroke-linecap="round" stroke-linejoin="round" stroke-dasharray="8 8"/>
<path d="M81.0118 403.651C75.1412 397.989 67.5811 406.87 61.3793 406.768C60.3708 411.295 58.7483 414.542 57.1108 415.699C54.651 417.46 50.1015 424.114 53.5978 424.817C57.0941 425.52 62.7042 431.121 63.4224 426.914C64.1053 422.705 66.5707 417.095 72.5288 424.104C74.0768 425.866 75.8175 427.448 77.7183 428.821C78.6785 425.641 86.0097 425.1 89.813 421.265C94.4537 416.637 87.5057 409.913 81.0118 403.651ZM207.885 461.174C208.358 454.215 193.046 449.352 191.416 453.05C189.786 456.747 186.316 456.312 183.753 452.14C181.191 447.968 186.087 444.01 183.536 443.553C180.985 443.095 177.736 437.284 178.437 434.967C179.139 432.651 174.487 417.806 166.601 415.949C158.716 414.092 157.556 402.955 156.17 396.928C154.784 390.902 149.658 394.137 145.728 389.037C141.798 383.937 135.049 386.49 131.569 386.722C128.09 386.955 131.569 380.21 137.131 376.516C142.693 372.823 149.204 353.071 149.204 349.147C149.204 345.223 124.847 345.426 120.208 347.75C115.569 350.074 110.928 344.27 114.864 342.64C118.799 341.01 127.161 332.899 126.7 329.654C126.239 326.409 132.505 323.393 129.022 320.373C125.539 317.353 125.077 324.327 122.063 326.64C119.049 328.953 112.317 328.272 105.13 326.874C97.9444 325.477 95.1607 335.681 95.3896 340.085C95.6185 344.49 87.0368 347.043 88.4249 350.755C89.813 354.467 86.8079 357.249 84.4932 355.153C82.1785 353.058 79.6237 347.969 74.9793 351.681C70.335 355.393 80.314 360.27 86.3297 360.976C92.3455 361.681 81.704 366.07 80.5392 372.549C79.3818 379.062 88.4193 376.271 88.892 380.908C89.3646 385.545 75.8985 386.25 75.8985 390.645C75.8985 395.072 83.5554 388.565 87.0312 386.715C90.5071 384.865 85.1854 397.604 93.5438 396.221C101.902 394.839 99.5632 383.47 102.579 383.928C105.596 384.385 101.193 389.955 103.748 394.824C106.303 399.694 97.7099 407.125 98.177 410.607C98.644 414.088 115.34 414.084 120.673 408.515C126.006 402.946 128.553 408.982 124.85 413.167C121.148 417.352 122.763 421.282 127.409 422.914C132.055 424.545 133.676 424.994 131.588 428.682C129.498 432.403 131.344 439.355 130.183 442.834C129.022 446.314 114.646 445.854 114.181 443.541C113.716 441.229 107.682 442.834 109.319 446.081C110.956 449.328 104.206 452.813 104.667 455.835C105.129 458.857 113.716 458.148 113.941 461.868C114.166 465.587 107.678 469.979 98.8691 472.533C90.0605 475.088 100.715 482.047 104.89 479.025C109.066 476.004 108.143 481.108 114.17 481.108C120.197 481.108 123.929 485.985 130.639 483.437C137.349 480.89 137.14 483.437 132.033 487.374C126.925 491.312 119.278 487.149 114.637 489.697C109.996 492.244 91.1248 509.941 94.6918 514.294C96.7814 516.833 99.5539 510.581 106.277 507.794C112.999 505.007 114.162 509.642 117.889 510.107C121.616 510.572 121.825 502.458 124.841 503.15C127.857 503.842 130.639 500.602 136.205 501.533C138.384 501.921 140.623 501.81 142.754 501.207C144.884 500.605 146.85 499.527 148.504 498.055C151.295 495.738 158.701 502.683 161.034 501.068C163.367 499.452 173.553 497.581 178.661 497.806C183.768 498.031 196.983 492.011 200.453 488.764C203.924 485.517 198.369 484.835 193.736 485.519C189.103 486.204 190.015 480.882 194.894 476.246C199.772 471.609 207.426 468.131 207.885 461.174ZM68.4798 344.73C74.7468 344.503 81.9329 333.831 78.9241 330.804C75.9153 327.777 63.8187 344.893 68.4798 344.728V344.73ZM158.256 294.393C162.197 290.462 166.83 275.381 160.809 277.003C154.788 278.626 156.535 296.116 158.256 294.392V294.393Z" stroke="white" stroke-miterlimit="10" stroke-linecap="round" stroke-linejoin="round" stroke-dasharray="8 8"/>
<path d="M343.589 371.872C341.265 370.722 340.337 363.281 343.117 360.981C345.896 358.681 347.072 349.828 344.746 347.515C342.421 345.202 334.07 347.515 333.377 353.775C332.685 360.034 325.961 357.254 324.104 358.644C322.247 360.034 327.805 362.816 324.796 365.603C321.787 368.391 320.622 361.424 315.751 360.981C310.881 360.501 310.414 368.385 307.871 372.332C305.327 376.278 306.94 384.627 307.871 390.195C308.801 395.762 315.522 399.234 313.892 403.878C313.148 406.035 314.666 408.458 316.283 410.824C321.096 410.744 325.903 411.213 330.611 412.222C332.538 412.532 334.505 412.487 336.416 412.09C334.369 408.77 329.797 406.07 330.145 403.646C330.611 400.414 335.017 402.474 338.269 405.261C341.522 408.048 348.712 408.515 349.396 405.036C349.823 402.89 348.237 392.975 343.835 395.297C339.432 397.619 338.269 396.687 336.639 394.366C335.009 392.046 339.886 388.341 341.049 384.629C342.212 380.917 349.854 382.292 351.019 379.285C352.184 376.278 345.898 373.035 343.589 371.872ZM378.625 386.014C376.764 384.849 375.37 389.259 373.281 389.726C371.191 390.193 368.878 380.904 367.946 386.014C367.014 391.123 362.379 383.924 357.742 390.409C353.105 396.893 360.522 402.71 363.769 404.807C367.016 406.904 363.536 409.903 359.364 408.979C355.193 408.054 357.742 414.998 363.536 415.938C369.33 416.877 375.597 405.732 374.905 402.944C374.213 400.157 380.817 387.391 378.625 386.023V386.014Z" stroke="white" stroke-miterlimit="10" stroke-linecap="round" stroke-linejoin="round" stroke-dasharray="8 8"/>
<path d="M550.283 139.269C548.04 137.049 543.584 131.082 547.292 131.082C551.001 131.082 552.502 119.917 548.037 117.673C543.571 115.429 548.037 105.737 544.304 103.508C540.572 101.278 542.816 93.8133 543.577 88.6014C544.304 83.3746 529.396 78.9126 521.2 75.1856C513.003 71.4586 509.291 65.4968 502.572 61.7698C495.853 58.0428 493.626 67.7241 493.626 73.7007C493.626 79.6774 487.671 80.3993 483.196 76.6779C478.721 72.9564 473.5 76.6779 466.794 73.7007C460.088 70.7236 463.072 80.3993 463.072 84.8651C463.072 89.3308 455.611 89.3308 451.143 89.3308C446.676 89.3308 439.22 93.0653 439.22 98.2771C439.22 103.489 432.521 106.464 434.743 109.466C436.965 112.467 433.999 115.42 431.022 117.668C428.044 119.915 425.067 127.343 422.834 129.576C420.602 131.809 424.323 135.531 419.857 138.523C415.391 141.515 410.168 139.25 407.936 141.5C405.703 143.749 407.936 148.969 407.191 155.68C406.447 162.392 401.215 169.822 396.747 175.776C392.279 181.731 398.236 183.245 400.482 183.963C402.714 184.721 402.714 188.448 400.482 192.91C398.239 197.402 393.02 194.398 390.041 193.674C387.064 192.91 378.86 196.652 374.39 204.095C369.921 211.537 371.4 216.018 372.891 219.745C374.381 223.472 369.169 227.949 372.891 235.401C376.612 242.853 371.402 244.348 372.146 250.309C372.891 256.271 381.822 255.519 382.578 261.483C383.333 267.447 379.6 269.67 376.608 269.67C373.616 269.67 374.376 275.624 377.368 277.124C380.36 278.624 379.6 289.048 378.112 292.04C376.623 295.032 366.931 292.04 367.673 295.761C368.416 299.483 365.431 305.45 365.431 308.442C365.431 311.434 364.687 321.108 361.71 318.862C360.218 318.039 358.476 317.793 356.814 318.17C356.814 318.635 356.829 319.1 356.814 319.64C356.643 322.631 357.184 325.62 358.393 328.361C359.603 331.102 361.445 333.517 363.769 335.408C368.872 339.592 364.927 345.844 369.331 351.648C373.735 357.452 372.342 361.627 377.215 365.804C382.088 369.982 382.557 372.298 380.468 377.633C378.378 382.968 384.647 381.572 384.872 384.819C385.097 388.066 383.497 394.791 385.119 398.045C386.742 401.299 389.989 398.045 397.4 397.818C404.811 397.591 402.969 392.941 403.194 388.531C403.42 384.121 407.148 386.216 408.066 383.436C408.983 380.657 415.723 379.955 421.057 382.257C426.385 384.594 429.166 380.647 430.104 375.078C431.042 369.509 434.038 376.243 435.668 377.395C437.298 378.547 442.167 368.819 444.475 362.557C446.782 356.296 444.249 357.455 438.915 363.477C433.58 369.498 436.6 357.455 438.69 352.578C440.779 347.701 440.55 333.543 441.237 330.311C441.924 327.079 443.325 322.189 450.051 320.799C456.778 319.409 465.592 311.058 464.209 307.588C462.827 304.118 473.483 298.314 473.483 294.827C473.483 291.34 462.347 280.669 458.64 278.354C454.934 276.039 446.812 277.887 447.504 275.342C448.196 272.796 446.564 262.813 445.643 257.711C444.722 252.609 451.43 247.273 451.43 242.396C451.43 237.519 451.205 231.957 455.607 230.334C460.01 228.712 457.239 224.548 463.041 223.148C468.843 221.749 467.678 213.409 473.945 210.855C480.212 208.3 480.656 206.203 488.786 202.28C496.904 198.326 510.588 189.054 512.917 184.177C515.247 179.3 504.544 174.196 511.287 169.092C518.031 163.989 512.443 158.191 517.314 156.341C522.186 154.491 524.041 151.937 527.528 148.224C531.015 144.512 535.637 147.999 543.984 146.602C546.812 146.141 549.704 146.268 552.48 146.974C552.119 143.333 551.295 140.307 550.283 139.269ZM471.857 343.334C463.05 343.576 458.923 360.914 461.188 363.761C463.05 366.076 480.666 343.103 471.857 343.336V343.334Z" stroke="white" stroke-miterlimit="10" stroke-linecap="round" stroke-linejoin="round" stroke-dasharray="8 8"/>
<path d="M609.413 313.754C611.335 309.612 616.364 308.905 612.607 303.455C611.596 304.23 610.43 304.779 609.187 305.063C602.453 306.924 587.838 300.433 579.488 302.049C571.139 303.664 554.207 303.666 550.262 307.843C546.317 312.02 536.344 313.179 540.746 316.892C545.149 320.604 540.746 322.461 543.993 326.872C547.24 331.284 548.872 333.139 553.284 332.2C557.696 331.26 561.166 333.582 556.516 338.459C556.464 338.553 556.401 338.641 556.33 338.722C563.764 338.029 572.018 337.557 573.233 338.459C575.093 339.857 586.219 348.678 589.008 347.748C590.711 347.18 598.325 347.995 603.981 348.723C603.6 348.034 603.448 347.24 603.548 346.459C603.649 345.678 603.996 344.949 604.539 344.378C606.629 342.638 611.156 342.638 608.719 339.168C606.281 335.698 605.587 334.996 605.246 330.812C604.906 326.627 603.849 324.558 604.197 321.77C604.545 318.983 607.325 318.281 609.413 313.754ZM527.29 325.015C518.948 327.338 517.711 338.882 521.038 338.707C525.207 338.459 534.721 330.575 537.276 328.022C539.831 325.469 535.646 322.693 527.29 325.015ZM534.247 318.281C536.119 314.802 520.85 316.331 524.283 319.446C526.838 321.776 532.407 321.761 534.247 318.281Z" stroke="white" stroke-miterlimit="10" stroke-linecap="round" stroke-linejoin="round" stroke-dasharray="8 8"/>
<path d="M650.244 40.1649C649.314 43.6519 643.06 42.956 643.285 39.4746C643.51 35.9932 633.544 33.2095 633.073 31.5758C632.602 29.9421 637.25 30.1896 640.97 32.2699C644.69 34.3502 647.23 32.9732 651.399 29.0322C655.569 25.0912 661.373 28.34 662.073 24.8623C662.772 21.3846 655.339 19.0513 653.954 16.9673C652.57 14.8833 647.23 12.0941 642.127 13.0281C637.025 13.9622 636.793 11.8671 633.754 9.08341C630.716 6.29977 621.473 10.9441 621.473 17.4325C621.473 23.9208 615.657 22.302 617.752 18.8224C619.847 15.3429 614.972 11.1693 619.613 10.0082C624.253 8.8471 621.695 1.89545 613.111 1.19954C604.528 0.503626 601.283 7.68973 603.37 10.0082C605.458 12.3266 597.563 22.302 594.084 22.302C590.604 22.302 594.556 13.7278 594.324 9.09085C594.091 4.45393 590.866 6.9994 584.354 14.4144C577.841 21.8294 573.003 28.5559 569.282 29.2555C565.561 29.9551 566.028 22.5271 572.062 19.2857C578.096 16.0444 578.331 7.21711 582.261 7.21711C586.19 7.21711 586.205 2.58577 580.413 1.19395C574.62 -0.19787 573.679 6.29419 571.822 8.15305C569.965 10.0119 560.472 4.90051 560.693 6.75937C560.914 8.61823 555.598 9.30298 557.902 12.7825C560.205 16.2621 556.752 19.2951 554.428 15.1121C552.104 10.9292 546.311 14.1818 543.532 18.8168C540.752 23.4519 537.019 23.2249 539.81 24.8567C542.601 26.4886 542.365 32.7388 538.193 33.8961C534.021 35.0535 535.633 22.5271 532.393 23.6901C529.154 24.853 531.228 17.6558 535.633 17.6558C540.037 17.6558 544.447 11.1637 543.98 9.54301C543.21 6.82822 538.42 7.459 538.42 10.9348C538.42 14.4107 531.461 13.7259 525.667 13.4822C519.872 13.2384 520.085 20.2143 526.597 23.9171C533.11 27.6199 525.44 29.957 522.187 27.1696C518.935 24.3823 513.844 25.7759 510.357 27.3966C506.87 29.0173 518.713 33.2039 519.178 35.2917C519.644 37.3794 513.137 32.7388 511.747 34.3613C510.357 35.9839 503.865 33.204 503.398 29.2555C502.931 25.307 492.486 30.878 498.303 32.2643C504.12 33.6505 502.008 37.3794 502.008 42.4815C502.008 47.5836 495.276 43.6463 496.673 39.2327C498.07 34.8191 492.486 35.7494 487.864 38.5293C483.242 41.3093 488.562 33.431 486.699 29.4844C484.837 25.5378 480.658 29.4844 475.788 30.4147C470.919 31.3451 468.379 31.5646 471.391 34.8228C474.404 38.0809 473.946 42.7029 469.987 42.0107C466.027 41.3186 464.432 42.0107 464.884 45.7322C465.337 49.4536 459.788 49.6639 459.323 46.4318C458.857 43.1998 450.974 44.1022 448.651 47.8292C446.337 51.5265 439.837 54.3213 440.535 58.493C441.233 62.6648 446.337 56.396 450.514 57.7859C454.691 59.1759 450.274 61.2729 452.604 63.3551C454.933 65.4372 454.453 70.5542 451.206 67.5398C447.959 64.5255 443.782 63.5821 443.082 68.4572C442.383 73.3323 438.912 67.7669 436.125 64.2799C433.338 60.7929 430.562 70.7924 427.549 68.4572C424.536 66.122 433.578 58.9582 431.254 55.4712C428.93 51.9842 427.307 57.5682 421.98 62.8955C416.653 68.2227 409.468 68.005 412.016 70.5542C414.563 73.1034 406.674 74.499 405.287 78.8958C403.901 83.2927 392.997 84.9357 386.031 89.5875C379.064 94.2393 387.428 94.4496 391.373 90.0378C395.318 85.6261 396.717 88.1901 402.976 84.2454C409.236 80.3007 415.962 77.0519 418.284 78.6633C418.959 79.2426 419.751 79.67 420.605 79.9164C421.46 80.1628 422.358 80.2225 423.237 80.0914C424.117 79.9602 424.958 79.6414 425.704 79.1564C426.449 78.6714 427.082 78.0317 427.558 77.2807C430.571 73.1015 434.29 74.0189 437.297 76.5811C440.304 79.1433 432.201 81.2329 435.9 84.9376C439.599 88.6423 431.503 90.717 431.503 87.4849C431.503 84.2529 426.866 81.458 425.236 84.465C423.606 87.4719 420.832 90.717 417.817 90.9645C414.803 91.212 411.56 96.7662 411.56 102.335C411.56 107.904 406.216 102.335 405.764 107.205C405.312 112.074 397.867 120.65 391.373 126.91C384.879 133.169 390.908 134.567 388.818 138.519C386.728 142.471 379.072 138.979 376.537 140.603C374.003 142.227 377.922 151.972 374.448 154.994C370.974 158.016 374.448 162.171 374.448 165.658C374.448 169.145 365.401 163.568 364.709 167.048C364.017 170.527 356.112 169.61 353.794 170.527C351.475 171.444 358.446 177.012 362.621 180.266C366.796 183.521 358.676 186.068 357.744 182.356C356.812 178.644 351.014 184.678 343.83 187.923C336.645 191.168 339.65 197.664 334.089 197.896C328.527 198.129 330.14 206.938 326.428 209.718C322.716 212.498 323.648 203.239 317.839 202.999C312.03 202.759 312.506 206.938 315.978 211.815C319.45 216.692 310.651 212.979 307.397 217.157C304.142 221.334 294.865 219.239 292.325 222.718C289.785 226.198 299.276 226.198 300.67 228.978C302.064 231.758 292.325 230.37 287.219 229.212C282.113 228.055 283.518 235.704 278.866 234.78C274.214 233.855 268.435 238.719 271.687 241.979C274.94 245.239 269.127 245.685 265.88 243.596C262.633 241.506 259.853 246.608 258.688 250.553C257.524 254.498 264.952 256.597 264.723 258.429C264.494 260.29 258.688 263.308 262.862 264.254C267.039 265.163 264.025 268.876 261.245 270.033C258.465 271.19 258.454 273.993 261.245 277.465C264.036 280.937 256.368 281.636 260.08 286.98C263.792 292.324 266.565 285.574 268.197 289.52C269.829 293.467 274.224 289.993 279.337 285.349C284.45 280.704 286.296 290.451 282.128 290.225C277.96 290 273.083 292.525 274.004 296.719C274.934 300.882 267.518 300.192 267.748 295.089C267.979 289.987 259.165 296.02 262.404 299.732C265.644 303.444 261.254 305.526 261.254 309.006C261.254 312.485 267.518 311.797 270.065 307.841C272.612 303.885 276.788 304.828 278.412 308.781C280.037 312.733 274.469 309.711 274.469 315.033C274.469 320.354 270.993 315.732 267.968 319.91C264.942 324.087 279.806 331.74 284.446 332.896C289.087 334.051 293.49 339.157 302.767 337.774C312.045 336.392 329.675 319.219 331.993 316.19C334.312 313.161 339.421 316.657 342.897 313.868C346.373 311.079 344.291 303.904 346.846 302.517C349.399 301.105 350.785 310.159 353.111 311.077C355.208 311.907 356.728 313.559 356.823 318.188C358.484 317.811 360.227 318.058 361.719 318.881C364.696 321.123 365.44 311.438 365.44 308.461C365.44 305.483 368.417 299.514 367.682 295.78C366.947 292.045 376.614 295.035 378.121 292.058C379.628 289.081 380.354 278.642 377.376 277.143C374.399 275.643 373.642 269.689 376.617 269.689C379.593 269.689 383.331 267.447 382.587 261.502C381.842 255.557 372.89 256.291 372.155 250.328C371.42 244.364 376.621 242.874 372.9 235.42C369.178 227.966 374.388 223.491 372.9 219.764C371.411 216.037 369.922 211.576 374.399 204.113C378.876 196.65 387.075 192.925 390.05 193.693C393.027 194.421 398.248 197.415 400.49 192.928C402.723 188.463 402.723 184.741 400.49 183.982C398.248 183.254 392.292 181.749 396.756 175.795C401.22 169.84 406.443 162.379 407.2 155.699C407.957 149.019 405.7 143.761 407.944 141.518C410.188 139.276 415.404 141.518 419.866 138.541C424.328 135.564 420.61 131.83 422.843 129.595C425.076 127.36 428.053 119.908 431.03 117.686C434.008 115.465 436.985 112.46 434.752 109.484C432.519 106.509 439.229 103.508 439.229 98.2957C439.229 93.0838 446.672 89.3494 451.152 89.3494C455.633 89.3494 463.081 89.3494 463.081 84.8836C463.081 80.4179 460.091 70.718 466.803 73.7193C473.514 76.7206 478.726 72.962 483.205 76.6965C487.684 80.4309 493.634 79.6885 493.634 73.7193C493.634 67.7501 495.867 58.0613 502.581 61.7884C503.105 62.0805 503.593 62.4061 504.103 62.728C506.315 57.7413 510.545 54.5892 514.504 55.0767C520.473 55.834 524.18 66.2578 531.647 67.7427C539.114 69.2275 546.555 72.227 548.79 68.487C551.025 64.7469 556.25 70.7291 560.713 69.2313C565.177 67.7334 565.179 77.4352 569.66 71.4734C574.14 65.5117 568.916 61.7846 576.37 62.542C583.824 63.2993 579.347 54.338 579.347 49.1187C579.347 43.8994 589.022 43.1644 589.022 38.6875C589.022 34.2106 602.444 37.9432 604.673 34.9549C606.902 31.9666 614.36 29.7449 617.352 34.9549C620.344 40.1649 632.995 41.6535 633.745 46.1415C633.931 49.0506 633.931 51.9686 633.745 54.8776C635.611 52.8183 638.189 51.5436 640.959 51.3106C645.588 51.3106 649.758 44.359 653.943 45.2838C657.415 46.0541 660.852 45.4698 661.922 39.6644C658.193 37.3013 651.094 37.0035 650.244 40.1649Z" stroke="white" stroke-miterlimit="10" stroke-linecap="round" stroke-linejoin="round" stroke-dasharray="8 8"/>
<path d="M409.001 744.638C399.48 746.72 395.548 747.42 389.988 744.638C384.429 741.856 375.4 747.172 376.761 750.892C377.691 753.452 381.412 756.693 392.995 759.723C404.578 762.752 405.989 770.61 410.858 770.85C415.728 771.09 416.193 766.433 415.036 760.173C413.878 753.914 420.83 746.72 421.522 745.555C422.214 744.39 418.5 742.55 409.001 744.638ZM319.227 691.979C314.136 696.393 309.923 691.209 307.877 694.761C305.314 699.173 315.757 705.892 313.667 714.939C311.578 723.986 314.825 735.351 320.161 730.022C325.498 724.693 328.056 727.242 331.065 723.29C334.074 719.338 331.53 704.742 333.62 697.783C335.709 690.824 324.329 687.57 319.227 691.979ZM432.893 684.555C426.864 680.858 430.801 674.816 421.295 675.268C411.783 675.748 400.42 663.918 396.94 650.219C393.461 636.521 378.625 635.843 374.905 627.719C371.186 619.596 378.387 618.68 375.145 611.954C373.335 608.212 377.337 604.901 382.062 603.022C381.809 596.074 382.084 589.117 382.884 582.21C380.16 582.091 377.47 581.558 374.905 580.63C373.158 579.583 372.816 574.006 371.768 574.006C370.721 574.006 360.987 574.006 359.24 575.753C357.493 577.5 352.285 580.63 349.501 578.883C348.9 578.511 348.238 578.139 347.562 577.807L344.525 580.63C344.525 580.63 344.053 584.352 342.192 584.352C340.331 584.352 337.559 582.967 337.559 586.199C337.559 589.431 332.453 588.521 330.138 588.06C327.824 587.599 324.575 588.518 324.575 591.305C324.575 594.092 324.104 600.129 320.399 596.887C316.695 593.646 312.956 585.278 311.572 586.201C310.188 587.124 306.941 597.338 303.694 597.338C301.68 597.338 295.067 597.862 290.311 598.285C289.063 602.282 290.393 604.661 292.087 605.694C293.834 606.729 291.043 610.904 288.957 611.955C286.871 613.007 283.391 611.955 285.831 615.775C288.27 619.596 292.79 619.947 290.351 623.777C289.811 624.458 289.47 625.276 289.365 626.139C289.26 627.002 289.394 627.877 289.754 628.668C290.114 629.46 290.686 630.137 291.405 630.624C292.125 631.112 292.965 631.392 293.834 631.433C297.31 631.783 302.187 631.085 301.133 633.88C300.338 635.573 299.747 637.354 299.373 639.187C301.964 638.72 304.5 637.986 306.941 636.997C311.818 634.463 309.732 630.043 317.837 627.721C325.942 625.399 336.63 632.133 339.879 636.997C343.128 641.861 344.053 642.339 344.747 646.291C345.441 650.243 348.468 658.12 359.59 665.304C370.711 672.488 375.145 680.612 380.934 683.627C386.723 686.641 392.536 685.956 396.006 690.126C399.476 694.296 404.121 696.62 409.692 699.175C415.263 701.73 415.486 707.749 420.821 708.456C426.155 709.163 422.681 713.791 425.923 717.728C429.164 721.665 430.1 730.024 426.622 734.661C423.145 739.298 424.99 747.18 427.32 747.18C429.65 747.18 434.506 738.831 435.206 734.196C435.905 729.56 440.541 729.799 444.245 724.914C447.95 720.03 438.685 718.878 437.068 712.619C435.451 706.359 444.028 700.783 452.14 705.887C460.253 710.99 463.513 714.474 463.963 706.592C464.414 698.71 438.92 688.267 432.889 684.555H432.893Z" stroke="white" stroke-miterlimit="10" stroke-linecap="round" stroke-linejoin="round" stroke-dasharray="8 8"/>
<path d="M470.902 646.37C467.685 650.709 464.54 656.211 464.897 658.01C464.943 659.655 464.724 661.297 464.248 662.872C467.713 665.914 471.42 668.667 475.334 671.104C475.634 671.266 475.892 671.396 476.172 671.541C477.089 666.389 480.637 661.066 483.218 660.448C479.616 656.029 474.315 649.791 470.902 646.37Z" stroke="white" stroke-miterlimit="10" stroke-linecap="round" stroke-linejoin="round" stroke-dasharray="8 8"/>
<path d="M525.905 642.57C522.418 639.425 522.775 633.878 525.905 631.778C529.034 629.677 526.247 626.901 526.247 623.43C526.247 619.96 511.296 618.901 508.849 618.209C506.403 617.517 510.597 608.465 506.769 608.465C506.044 608.5 505.32 608.378 504.647 608.105C503.974 607.833 503.369 607.417 502.873 606.887C502.377 606.356 502.003 605.725 501.776 605.035C501.549 604.345 501.475 603.615 501.559 602.894C501.559 600.114 495.64 595.587 495.99 593.845C496.07 593.577 496.218 593.334 496.42 593.14C494.273 592.82 492.618 592.552 492.008 592.418C489.723 591.872 487.475 591.185 485.276 590.36C485.276 590.36 475.621 593.475 468.926 595.514C469.378 599.608 470.446 604.045 473.019 605.004C478.008 606.874 476.143 611.853 478.008 616.228C479.872 620.602 479.253 640.542 476.763 640.542C475.706 640.542 473.291 643.13 470.917 646.364C474.329 649.786 479.631 656.023 483.233 660.442C483.387 660.377 483.548 660.331 483.713 660.304C486.822 660.304 498.227 668.609 498.227 668.609C498.227 668.609 514.372 665.245 525.254 663.667C525.518 662.097 525.62 660.504 525.559 658.913C525.211 656.825 527.656 652.653 530.769 652.653C533.882 652.653 529.377 645.7 525.905 642.57Z" stroke="white" stroke-miterlimit="10" stroke-linecap="round" stroke-linejoin="round" stroke-dasharray="8 8"/>
<path d="M121.186 245.791C128.89 245.406 128.7 236.903 131.858 237.299C135.015 237.695 140.162 231.371 142.142 227.419C144.122 223.467 139.967 216.355 135.225 216.355C130.484 216.355 126.921 212.596 127.917 209.829C128.912 207.062 125.336 203.503 125.537 201.53C125.738 199.558 119.61 201.32 116.441 202.126C113.273 202.932 106.565 194.409 103.602 195.986C100.64 197.562 102.806 201.717 102.017 204.093C101.228 206.469 94.1146 201.916 94.1146 204.688C94.1146 207.461 91.1468 207.851 88.7781 204.874C86.4094 201.897 80.8607 203.689 81.0673 206.059C81.2738 208.43 78.693 206.463 74.1472 203.689C69.6015 200.915 64.8548 206.852 65.2511 209.829C65.6475 212.806 63.6677 213.575 59.9109 207.062C56.1541 200.55 51.8074 207.647 53.7891 211.219C55.7707 214.792 54.9781 219.109 52.0158 217.335C49.0535 215.562 45.0939 218.519 43.3132 221.291C41.5325 224.064 35.2098 213.179 39.7574 210.616C44.305 208.054 25.3256 197.171 19.3992 197.171C13.4728 197.171 17.4176 201.53 21.379 204.688C25.3405 207.846 18.5991 207.062 16.4314 204.284C14.2636 201.506 10.1049 203.694 7.73064 207.647C5.35635 211.599 1.40418 213.787 1.01529 216.546C0.626398 219.306 7.73064 222.285 13.8543 219.71C19.9779 217.134 26.8979 216.733 30.0667 219.71C33.2355 222.687 24.3338 223.859 27.4896 226.222C30.6454 228.585 28.0851 230.578 20.5808 229.981C13.0765 229.384 3.97756 231.559 5.35821 234.132C6.73887 236.706 24.5237 231.966 24.7302 234.529C24.9367 237.091 24.7302 241.445 29.475 239.472C34.2199 237.5 31.0473 243.032 33.416 244.011C35.7847 244.989 35.2023 249.744 28.8796 250.151C22.5569 250.559 19.4699 251.815 22.1531 254.494C25.5136 257.862 32.4373 255.48 39.1508 253.904C45.8643 252.328 55.5623 260.417 63.4648 263.58C71.3673 266.743 85.0083 262.397 86.5936 258.242C88.1789 254.087 98.8465 255.672 103.191 252.708C108.42 248.756 114.657 246.359 121.186 245.791V245.791Z" stroke="white" stroke-miterlimit="10" stroke-linecap="round" stroke-linejoin="round" stroke-dasharray="8 8"/>
<path d="M344.878 576.724C344.898 575.401 344.432 574.117 343.567 573.115C342.703 572.114 341.5 571.464 340.188 571.291C335.304 570.402 335.611 568.708 335.15 567.145C334.687 566.141 334.132 565.181 333.492 564.278C333.492 564.278 330.816 564.54 331.484 569.043C331.7 570.508 331.815 571.488 331.871 572.141C331.961 573.21 332.448 574.206 333.237 574.933C333.849 575.613 334.599 576.157 335.437 576.526C336.275 576.896 337.181 577.084 338.097 577.078C340.31 576.502 342.617 576.382 344.878 576.724V576.724Z" stroke="white" stroke-miterlimit="10" stroke-linecap="round" stroke-linejoin="round" stroke-dasharray="8 8"/>
<path d="M181.213 661.186C181.213 661.186 179.778 666.865 188.501 666.517C188.501 666.517 194.257 663.609 199.491 665.47C204.725 667.33 202.805 662.621 202.805 662.621C202.805 662.621 197.63 661.633 195.537 659.715C193.443 657.796 191.931 656.341 189.897 656.574C189.651 656.574 189.409 656.638 189.195 656.758C188.98 656.879 188.8 657.053 188.672 657.262C188.543 657.472 188.471 657.712 188.461 657.958C188.452 658.203 188.505 658.448 188.617 658.667C188.617 658.667 188.927 661.147 181.213 661.186Z" stroke="white" stroke-miterlimit="10" stroke-linecap="round" stroke-linejoin="round" stroke-dasharray="8 8"/>
<path d="M297.056 640.06C294.32 639.749 291.551 640.171 289.032 641.28C287.13 642.136 282.972 641.334 282.345 644.944C280.369 656.341 288.044 646.922 288.044 646.922L295.37 640.758L297.115 640.06H297.056Z" stroke="white" stroke-miterlimit="10" stroke-linecap="round" stroke-linejoin="round" stroke-dasharray="8 8"/>
<path d="M676.219 432.063C673.428 431.363 671.69 425.111 667.163 423.364C662.636 421.617 663.693 416.055 659.862 413.625C656.031 411.195 658.464 406.316 658.116 402.479C657.769 398.642 658.82 392.74 656.732 391.7C654.644 390.66 645.94 385.783 642.124 387.528C638.307 389.274 635.505 390.651 633.75 387.528C631.996 384.406 629.586 382.651 625.758 383.693C624.275 384.077 622.716 384.052 621.245 383.623C619.774 383.194 618.446 382.375 617.402 381.254C617.061 380.932 616.791 380.543 616.607 380.111C614.858 380.404 613.194 381.074 611.731 382.076C609.401 383.937 608.939 387.638 605.689 387.638C602.438 387.638 598.737 386.255 595.025 389.035C591.313 391.815 590.373 395.077 590.846 397.377C591.318 399.677 591.776 403.419 588.985 403.419C586.194 403.419 586.67 406.671 583.883 407.596C581.096 408.521 576.459 412.7 575.992 415.007C575.525 417.315 575.532 422.439 573.669 422.439C571.807 422.439 565.326 423.369 563.463 425.686C561.601 428.003 559.308 430.323 555.589 429.398C551.78 428.843 547.935 428.571 544.086 428.583C544.168 429.048 544.131 429.527 543.976 429.973C543.15 431.962 542.941 434.153 543.376 436.263C543.811 438.372 544.87 440.302 546.415 441.802C549.207 444.234 550.245 453.98 547.115 455.385C543.985 456.79 538.066 460.947 538.066 463.386C538.066 465.825 544.326 467.908 543.276 471.387C542.701 474.219 542.608 477.128 542.999 479.991C545.963 480.121 548.881 480.646 551.393 478.121C554.184 475.33 555.58 472.087 561.606 472.087C567.633 472.087 585.729 472.087 588.511 475.332C591.292 478.577 598.722 475.799 602.887 477.654C607.051 479.509 613.098 481.376 613.558 479.044C614.017 476.713 619.599 482.291 623.769 479.974C627.939 477.658 631.653 484.611 633.981 483.221C636.309 481.831 646.037 481.83 648.351 484.152C650.666 486.474 651.131 481.822 651.131 479.04C651.131 476.259 660.435 468.844 660.435 468.844C663.877 468.657 667.274 467.967 670.516 466.797C669.36 464.767 668.571 462.549 668.187 460.245C666.464 452.581 663.676 448.067 665.768 445.629C667.859 443.192 673.769 448.759 676.889 447.369C680.01 445.979 685.596 443.19 684.89 440.062C684.185 436.934 678.999 432.755 676.219 432.063Z" stroke="white" stroke-miterlimit="10" stroke-linecap="round" stroke-linejoin="round" stroke-dasharray="8 8"/>
<path d="M312.836 792.68C311.678 784.789 295.734 795.037 299.148 797.332C306.113 801.961 313.989 800.569 312.836 792.68Z" stroke="white" stroke-miterlimit="10" stroke-linecap="round" stroke-linejoin="round" stroke-dasharray="8 8"/>
</g>
</svg>
