<svg width="32" height="32" viewBox="0 0 32 32" fill="none" xmlns="http://www.w3.org/2000/svg">
<path d="M10.0798 1.5H6.37769C4.96313 1.5 3.8125 2.65088 3.8125 4.06543V27.9207C3.8125 29.335 4.96313 30.4858 6.37769 30.4858H10.0798C11.4944 30.4858 12.645 29.335 12.645 27.9207V4.06543C12.645 2.65088 11.4944 1.5 10.0798 1.5V1.5Z" fill="#F8B941"/>
<path d="M28.8333 4.23486H14.5195V27.7512H28.8333C30.5789 27.7512 31.999 26.3311 31.999 24.5852V7.40063C31.999 5.65503 30.5789 4.23486 28.8333 4.23486ZM18.887 24.4397H17.3813C16.8638 24.4397 16.4438 24.0198 16.4438 23.5022C16.4438 22.9844 16.8638 22.5647 17.3813 22.5647H18.887C19.4045 22.5647 19.8245 22.9844 19.8245 23.5022C19.8245 24.0198 19.4045 24.4397 18.887 24.4397ZM18.887 21.4424H17.3813C16.8638 21.4424 16.4438 21.0227 16.4438 20.5049C16.4438 19.9871 16.8638 19.5674 17.3813 19.5674H18.887C19.4045 19.5674 19.8245 19.9871 19.8245 20.5049C19.8245 21.0227 19.4045 21.4424 18.887 21.4424ZM18.887 18.4202H17.3813C16.8638 18.4202 16.4438 18.0002 16.4438 17.4827C16.4438 16.9648 16.8638 16.5452 17.3813 16.5452H18.887C19.4045 16.5452 19.8245 16.9648 19.8245 17.4827C19.8245 18.0002 19.4045 18.4202 18.887 18.4202ZM24.012 24.4316H22.5066C21.9888 24.4316 21.5691 24.012 21.5691 23.4941C21.5691 22.9763 21.9888 22.5566 22.5066 22.5566H24.012C24.5298 22.5566 24.9495 22.9763 24.9495 23.4941C24.9495 24.012 24.5298 24.4316 24.012 24.4316ZM24.012 21.4343H22.5066C21.9888 21.4343 21.5691 21.0146 21.5691 20.4968C21.5691 19.979 21.9888 19.5593 22.5066 19.5593H24.012C24.5298 19.5593 24.9495 19.979 24.9495 20.4968C24.9495 21.0146 24.5298 21.4343 24.012 21.4343ZM24.012 18.4121H22.5066C21.9888 18.4121 21.5691 17.9924 21.5691 17.4746C21.5691 16.9568 21.9888 16.5371 22.5066 16.5371H24.012C24.5298 16.5371 24.9495 16.9568 24.9495 17.4746C24.9495 17.9924 24.5298 18.4121 24.012 18.4121ZM29.1372 24.4316H27.6318C27.114 24.4316 26.6943 24.012 26.6943 23.4941C26.6943 22.9763 27.114 22.5566 27.6318 22.5566H29.1372C29.655 22.5566 30.0747 22.9763 30.0747 23.4941C30.0747 24.012 29.655 24.4316 29.1372 24.4316ZM29.1372 21.4343H27.6318C27.114 21.4343 26.6943 21.0146 26.6943 20.4968C26.6943 19.979 27.114 19.5593 27.6318 19.5593H29.1372C29.655 19.5593 30.0747 19.979 30.0747 20.4968C30.0747 21.0146 29.655 21.4343 29.1372 21.4343ZM29.1372 18.4121H27.6318C27.114 18.4121 26.6943 17.9924 26.6943 17.4746C26.6943 16.9568 27.114 16.5371 27.6318 16.5371H29.1372C29.655 16.5371 30.0747 16.9568 30.0747 17.4746C30.0747 17.9924 29.655 18.4121 29.1372 18.4121ZM30.0747 13.6497C30.0747 14.4678 29.4092 15.1335 28.5911 15.1335H17.9277C17.1096 15.1335 16.4438 14.4678 16.4438 13.6497V9.33887C16.4438 8.52051 17.1096 7.85498 17.9277 7.85498H28.5911C29.4092 7.85498 30.0747 8.52051 30.0747 9.33887V13.6497Z" fill="white"/>
<path d="M18.3203 9.72998H28.2014V13.2585H18.3203V9.72998Z" fill="white"/>
<path d="M1.93799 4.48267C0.800293 4.96313 0 6.09009 0 7.40063V24.5852C0 25.8958 0.800293 27.0227 1.93799 27.5032V4.48267Z" fill="white"/>
</svg>
