<svg width="32" height="32" viewBox="0 0 32 32" fill="none" xmlns="http://www.w3.org/2000/svg">
<path d="M0.548828 7.5625H7.49952V0.549316L0.548828 7.5625Z" fill="white"/>
<path d="M24.4375 16.9375C20.3021 16.9375 16.9375 20.3021 16.9375 24.4375C16.9375 28.5729 20.3021 32 24.4375 32C28.5729 32 32 28.5729 32 24.4375C32 20.3021 28.5729 16.9375 24.4375 16.9375ZM27.9128 24.1628L24.1628 27.9128C23.7966 28.279 23.2033 28.279 22.8371 27.9128L20.9621 26.0378C20.5959 25.6716 20.5959 25.0783 20.9621 24.7121C21.3283 24.3459 21.9216 24.3459 22.2878 24.7121L23.5 25.9243L26.5872 22.8371C26.9534 22.4709 27.5467 22.4709 27.9129 22.8371C28.2791 23.2033 28.2791 23.7966 27.9128 24.1628Z" fill="#F8B941"/>
<path d="M4.6875 20.6875H15.8572C17.3079 17.3824 20.6031 15.0625 24.4375 15.0625V2.8125C24.4375 1.26163 23.1759 0 21.625 0H9.375V8.5C9.375 9.01819 8.95569 9.4375 8.4375 9.4375H0V29.125C0 30.6759 1.26163 32 2.8125 32H18.8705C17.0525 30.6464 15.7206 28.6116 15.252 26.3125H4.6875C4.16931 26.3125 3.75 25.8932 3.75 25.375C3.75 24.8568 4.16931 24.4375 4.6875 24.4375H15.0625C15.0625 23.7955 15.1284 23.1686 15.252 22.5625H4.6875C4.16931 22.5625 3.75 22.1432 3.75 21.625C3.75 21.1068 4.16931 20.6875 4.6875 20.6875ZM12.1875 5.6875H19.75C20.2682 5.6875 20.6875 6.10681 20.6875 6.625C20.6875 7.14319 20.2682 7.5625 19.75 7.5625H12.1875C11.6693 7.5625 11.25 7.14319 11.25 6.625C11.25 6.10681 11.6693 5.6875 12.1875 5.6875ZM12.1875 9.4375H19.75C20.2682 9.4375 20.6875 9.85681 20.6875 10.375C20.6875 10.8932 20.2682 11.3125 19.75 11.3125H12.1875C11.6693 11.3125 11.25 10.8932 11.25 10.375C11.25 9.85681 11.6693 9.4375 12.1875 9.4375ZM4.6875 13.1875H19.75C20.2682 13.1875 20.6875 13.6068 20.6875 14.125C20.6875 14.6432 20.2682 15.0625 19.75 15.0625H4.6875C4.16931 15.0625 3.75 14.6432 3.75 14.125C3.75 13.6068 4.16931 13.1875 4.6875 13.1875ZM4.6875 16.9375H16.3516C16.8698 16.9375 17.2891 17.3568 17.2891 17.875C17.2891 18.3932 16.8698 18.8125 16.3516 18.8125H4.6875C4.16931 18.8125 3.75 18.3932 3.75 17.875C3.75 17.3568 4.16931 16.9375 4.6875 16.9375Z" fill="white"/>
</svg>
