<svg width="40" height="40" viewBox="0 0 40 40" fill="none" xmlns="http://www.w3.org/2000/svg">
<g clip-path="url(#clip0)">
<path d="M4.58398 23.3334H35.4173C36.1073 23.3334 36.6673 22.7734 36.6673 22.0834V7.91669C36.6673 7.22669 36.1073 6.66669 35.4173 6.66669H4.58398C3.89398 6.66669 3.33398 7.22669 3.33398 7.91669V22.0834C3.33398 22.7734 3.89398 23.3334 4.58398 23.3334ZM28.7507 12.9167C28.7507 12.2267 29.3107 11.6667 30.0007 11.6667C30.6907 11.6667 31.2507 12.2267 31.2507 12.9167V17.0834C31.2507 17.7734 30.6907 18.3334 30.0007 18.3334C29.3107 18.3334 28.7507 17.7734 28.7507 17.0834V12.9167ZM22.084 12.9167C22.084 12.2267 22.644 11.6667 23.334 11.6667C24.024 11.6667 24.584 12.2267 24.584 12.9167V17.0834C24.584 17.7734 24.024 18.3334 23.334 18.3334C22.644 18.3334 22.084 17.7734 22.084 17.0834V12.9167ZM15.4173 12.9167C15.4173 12.2267 15.9773 11.6667 16.6673 11.6667C17.3573 11.6667 17.9173 12.2267 17.9173 12.9167V17.0834C17.9173 17.7734 17.3573 18.3334 16.6673 18.3334C15.9773 18.3334 15.4173 17.7734 15.4173 17.0834V12.9167ZM8.75065 12.9167C8.75065 12.2267 9.31065 11.6667 10.0007 11.6667C10.6907 11.6667 11.2507 12.2267 11.2507 12.9167V17.0834C11.2507 17.7734 10.6907 18.3334 10.0007 18.3334C9.31065 18.3334 8.75065 17.7734 8.75065 17.0834V12.9167Z" fill="#F8B941"/>
<path d="M38.3333 25H1.66667C0.746667 25 0 25.7467 0 26.6667C0 27.5867 0.746667 28.3333 1.66667 28.3333H3.79667C3.51 28.825 3.33333 29.39 3.33333 30C3.33333 31.8383 4.82833 33.3333 6.66667 33.3333C7.66667 33.3333 8.555 32.8817 9.16667 32.1817C9.77833 32.8817 10.6667 33.3333 11.6667 33.3333C13.505 33.3333 15 31.8383 15 30C15 29.39 14.8233 28.825 14.5367 28.3333H25.4633C25.1767 28.825 25 29.39 25 30C25 31.8383 26.495 33.3333 28.3333 33.3333C29.3333 33.3333 30.2217 32.8817 30.8333 32.1817C31.445 32.8817 32.3333 33.3333 33.3333 33.3333C35.1717 33.3333 36.6667 31.8383 36.6667 30C36.6667 29.39 36.49 28.825 36.2033 28.3333H38.3333C39.2533 28.3333 40 27.5867 40 26.6667C40 25.7467 39.2533 25 38.3333 25Z" fill="white"/>
</g>
<defs>
<clipPath id="clip0">
<rect width="40" height="40" fill="white"/>
</clipPath>
</defs>
</svg>
