<svg width="145" height="40" viewBox="0 0 145 40" fill="none" xmlns="http://www.w3.org/2000/svg">
<path d="M72.6493 10.885C72.5517 10.885 72.4541 10.8362 72.4053 10.763C72.332 10.6897 72.332 10.5921 72.332 10.4945L74.4797 0.390493C74.5042 0.268464 74.553 0.195247 74.6506 0.122029C74.7482 0.0488116 74.8458 0.0244058 74.9435 0.0244058H76.9203C77.0424 0.0244058 77.1156 0.0488116 77.1888 0.122029C77.262 0.195247 77.262 0.29287 77.262 0.390493L76.5298 3.7829L79.9711 0.29287C80.0443 0.219652 80.1175 0.170841 80.2151 0.0976233C80.3127 0.0244058 80.4592 0 80.63 0H82.9242C83.0706 0 83.1682 0.0732175 83.1926 0.195247C83.217 0.317276 83.217 0.439305 83.1194 0.512522L78.3359 5.41809L81.2646 10.3725C81.3378 10.5189 81.3378 10.6165 81.2402 10.7386C81.1425 10.8362 81.0449 10.885 80.9229 10.885H78.7508C78.5799 10.885 78.4579 10.8606 78.3847 10.7874C78.3115 10.7142 78.2382 10.6409 78.1894 10.5677L75.8953 6.6872L75.0899 10.4945C75.0655 10.5921 75.0167 10.6897 74.9435 10.763C74.8702 10.8362 74.7726 10.885 74.6506 10.885H72.6493Z" fill="white"/>
<path d="M84.8765 11.0306C84.3884 11.0306 83.9491 10.9574 83.5586 10.7866C83.1681 10.6157 82.8752 10.3961 82.6556 10.0788C82.4359 9.76151 82.2651 9.37102 82.2163 8.93171C82.143 8.49241 82.143 7.95548 82.2407 7.39415C82.2895 7.1989 82.3139 7.00365 82.3383 6.83281C82.3627 6.66197 82.4115 6.49113 82.4603 6.27148C82.6067 5.71014 82.7776 5.22203 83.0216 4.78272C83.2657 4.34342 83.5342 3.95292 83.8759 3.63565C84.2175 3.31837 84.5836 3.07431 85.0229 2.90347C85.4622 2.73263 85.9503 2.63501 86.4873 2.63501C87.1218 2.63501 87.6099 2.73263 87.9272 2.90347C88.2445 3.07431 88.513 3.31837 88.7082 3.58684L88.7814 3.17194C88.8058 3.04991 88.8546 2.97669 88.9523 2.90347C89.0499 2.83026 89.1475 2.80585 89.2451 2.80585H90.9779C91.1 2.80585 91.1732 2.83026 91.2464 2.90347C91.2952 2.97669 91.3196 3.07431 91.2952 3.17194L89.7821 10.4937C89.7577 10.5913 89.7088 10.6889 89.6112 10.7621C89.5136 10.8354 89.416 10.8842 89.3183 10.8842H87.5611C87.4635 10.8842 87.3659 10.8354 87.3171 10.7621C87.2439 10.6889 87.2439 10.5913 87.2439 10.4937L87.3415 10.0056C87.0242 10.2984 86.6825 10.5669 86.3164 10.7621C85.9503 10.933 85.4622 11.0306 84.8765 11.0306ZM85.9747 8.95612C86.3164 8.95612 86.6093 8.8829 86.8534 8.73647C87.0974 8.59003 87.2927 8.39478 87.4391 8.15073C87.5855 7.90667 87.7076 7.66261 87.7564 7.36974C87.8296 7.17449 87.8784 6.95484 87.9028 6.784C87.9272 6.58875 87.976 6.39351 88.0004 6.19826C88.0492 5.9298 88.0492 5.71014 88.0004 5.46608C87.9516 5.24643 87.854 5.05119 87.6832 4.92916C87.5123 4.78272 87.2683 4.7095 86.951 4.7095C86.6093 4.7095 86.3408 4.78272 86.1212 4.92916C85.9015 5.07559 85.7063 5.27084 85.5599 5.5149C85.4134 5.75896 85.2914 6.02742 85.2182 6.34469C85.1694 6.49113 85.145 6.66197 85.0961 6.83281C85.0473 7.00365 85.0229 7.15009 84.9985 7.32093C84.9741 7.6138 84.9741 7.90667 84.9741 8.15073C84.9985 8.39478 85.0717 8.59003 85.2426 8.73647C85.389 8.8829 85.6331 8.95612 85.9747 8.95612Z" fill="white"/>
<path d="M94.6154 11.0328C94.0052 11.0328 93.4683 10.8864 93.029 10.6179C92.5897 10.3494 92.2968 9.95894 92.1504 9.42201C91.9796 8.90949 92.004 8.25054 92.1504 7.49395L93.0534 3.14972C93.0778 3.02769 93.1266 2.95447 93.2243 2.88125C93.3219 2.80804 93.4195 2.78363 93.5415 2.78363H95.494C95.5916 2.78363 95.6892 2.80804 95.7381 2.88125C95.7869 2.95447 95.8113 3.05209 95.7869 3.14972L94.9083 7.39633C94.835 7.73801 94.8106 8.00648 94.835 8.22613C94.8595 8.44578 94.9571 8.61662 95.1279 8.73865C95.2988 8.86068 95.5428 8.90949 95.8357 8.90949C96.275 8.90949 96.6655 8.78746 96.9828 8.519C97.3 8.25054 97.5197 7.88445 97.6173 7.39633L98.5203 3.14972C98.5447 3.02769 98.5935 2.95447 98.6912 2.88125C98.7888 2.80804 98.8864 2.78363 98.984 2.78363H100.937C101.059 2.78363 101.132 2.80804 101.205 2.88125C101.254 2.95447 101.278 3.05209 101.254 3.14972L99.7162 10.4959C99.6918 10.5935 99.643 10.6911 99.5454 10.7643C99.4477 10.8376 99.3501 10.8864 99.2525 10.8864H97.4709C97.3488 10.8864 97.2756 10.8376 97.2024 10.7643C97.1292 10.6911 97.1292 10.5935 97.1292 10.4959L97.2512 9.91013C97.0316 10.1542 96.8119 10.3494 96.5435 10.5203C96.2994 10.6911 96.0065 10.8131 95.7137 10.9108C95.4208 11.0084 95.0547 11.0328 94.6154 11.0328Z" fill="white"/>
<path d="M101.863 10.8874C101.741 10.8874 101.668 10.8386 101.595 10.7654C101.521 10.6922 101.521 10.5946 101.521 10.4969L103.083 3.19959C103.108 3.07756 103.157 3.00434 103.254 2.93112C103.352 2.85791 103.45 2.8335 103.572 2.8335H105.353C105.475 2.8335 105.548 2.85791 105.622 2.93112C105.67 3.00434 105.695 3.10196 105.67 3.19959L105.548 3.78533C105.866 3.46805 106.256 3.19959 106.696 2.97993C107.135 2.76028 107.647 2.66266 108.233 2.66266C108.892 2.66266 109.429 2.80909 109.844 3.07756C110.259 3.34602 110.552 3.73651 110.722 4.24904C110.869 4.76156 110.869 5.42052 110.698 6.1771L109.795 10.4969C109.771 10.5946 109.722 10.6922 109.624 10.7654C109.527 10.8386 109.429 10.8874 109.331 10.8874H107.379C107.257 10.8874 107.184 10.8386 107.11 10.7654C107.037 10.6922 107.037 10.5946 107.037 10.4969L107.94 6.25031C108.062 5.73779 108.038 5.37171 107.891 5.10324C107.745 4.85918 107.452 4.71275 106.964 4.71275C106.5 4.71275 106.11 4.83478 105.793 5.10324C105.475 5.37171 105.256 5.73779 105.158 6.22591L104.279 10.4969C104.255 10.5946 104.206 10.6922 104.109 10.7654C104.011 10.8386 103.913 10.8874 103.816 10.8874H101.863Z" fill="white"/>
<path d="M115.36 11.0339C114.53 11.0339 113.846 10.8874 113.285 10.619C112.724 10.3505 112.333 9.93559 112.089 9.42307C111.845 8.91055 111.772 8.276 111.894 7.54382C111.918 7.34858 111.943 7.10452 112.016 6.83605C112.065 6.56759 112.138 6.34794 112.187 6.15269C112.382 5.42052 112.675 4.78596 113.09 4.27344C113.505 3.76092 114.017 3.34602 114.652 3.07756C115.286 2.80909 116.043 2.66266 116.897 2.66266C117.727 2.66266 118.41 2.80909 118.972 3.07756C119.533 3.34602 119.948 3.76092 120.192 4.27344C120.46 4.78596 120.534 5.42052 120.412 6.15269C120.363 6.34794 120.314 6.592 120.265 6.83605C120.216 7.10452 120.167 7.32417 120.119 7.54382C119.923 8.276 119.631 8.88614 119.24 9.42307C118.85 9.93559 118.337 10.3505 117.702 10.619C117.068 10.9118 116.287 11.0339 115.36 11.0339ZM115.604 9.15461C116.067 9.15461 116.458 9.00817 116.751 8.73971C117.044 8.47124 117.263 8.03194 117.41 7.47061C117.458 7.32417 117.507 7.10452 117.556 6.86046C117.605 6.592 117.654 6.39675 117.678 6.25031C117.776 5.68898 117.751 5.27408 117.605 5.00562C117.458 4.71275 117.166 4.56631 116.677 4.56631C116.238 4.56631 115.872 4.71275 115.579 5.00562C115.286 5.29849 115.067 5.71339 114.92 6.25031C114.871 6.39675 114.823 6.6164 114.774 6.86046C114.725 7.12892 114.676 7.32417 114.652 7.47061C114.554 8.03194 114.579 8.44684 114.725 8.73971C114.847 9.00817 115.14 9.15461 115.604 9.15461Z" fill="white"/>
<path d="M22.5937 21.548C22.2276 20.4254 21.6175 19.4736 20.7633 18.717C19.9091 17.9604 18.884 17.3747 17.6637 16.9598C16.4678 16.5693 15.1255 16.3496 13.6856 16.3496H5.58283C5.36318 16.3496 5.14353 16.4228 4.94828 16.5937C4.75303 16.7401 4.63101 16.9353 4.58219 17.1794L0.0183044 38.803C-0.0305073 39.0226 0.0183044 39.2179 0.164739 39.3887C0.286768 39.5595 0.482015 39.6328 0.701667 39.6328H10.0491C12.3432 39.6328 14.2713 39.3155 15.8089 38.6565C17.3464 37.9976 18.5667 36.9969 19.5186 35.6546C20.4704 34.3123 21.1782 32.6039 21.6907 30.5294C21.9347 29.5776 22.13 28.7234 22.3008 27.9912C22.4473 27.259 22.6181 26.4048 22.7645 25.4286C22.9842 23.9886 22.9598 22.6707 22.5937 21.548ZM16.6631 25.5018C16.541 26.1119 16.4434 26.6977 16.3458 27.1858C16.2482 27.6983 16.1261 28.2108 16.0041 28.7234C15.8821 29.2359 15.7357 29.7972 15.5892 30.4562C15.3452 31.5056 15.0035 32.3354 14.5398 32.97C14.0761 33.6045 13.5147 34.0926 12.807 34.3855C12.1236 34.6784 11.2694 34.8248 10.2932 34.8248H6.82753L9.75623 21.1331H13.0754C14.5398 21.1331 15.5648 21.4748 16.175 22.1826C16.7607 22.8904 16.9315 23.9886 16.6631 25.5018Z" fill="white"/>
<path d="M43.5349 22.5743C43.4128 22.4278 43.2176 22.3546 42.9979 22.3546H39.2883C39.093 22.3546 38.8978 22.4034 38.7269 22.5255C38.7025 22.5499 38.6537 22.5743 38.6293 22.5987C38.4341 22.7451 38.312 22.9648 38.2876 23.2088L38.1168 24.063C37.7019 23.5017 37.165 23.038 36.4816 22.6475C36.4572 22.6475 36.4572 22.6231 36.4328 22.6231C35.7494 22.2326 34.7 22.0374 33.3576 22.0374C32.235 22.0374 31.1855 22.2326 30.2581 22.5743C29.3063 22.9404 28.5009 23.4773 27.7931 24.1607C27.0854 24.844 26.4752 25.6738 25.9627 26.6256C25.4502 27.5775 25.0597 28.6513 24.7668 29.8228C24.6448 30.2621 24.5716 30.6526 24.4983 30.9943C24.4251 31.336 24.3519 31.7265 24.2787 32.1658C24.0834 33.4105 24.059 34.5087 24.2055 35.485C24.3519 36.4368 24.6692 37.2666 25.1817 37.9499C25.6698 38.6333 26.3044 39.1458 27.1342 39.4875C27.9396 39.8292 28.867 40 29.9408 40C30.9659 40 31.8201 39.8536 32.5523 39.5851C32.7231 39.5119 32.8695 39.4631 33.016 39.3655C33.7725 38.9506 34.4803 38.4381 35.1637 37.8279C35.1881 37.8035 35.2125 37.7791 35.2369 37.7791L34.9928 38.853C34.944 39.0726 34.9928 39.2679 35.1149 39.4387C35.2613 39.6095 35.4321 39.6828 35.6518 39.6828H39.4103C39.6544 39.6828 39.874 39.6095 40.0448 39.4387C40.2401 39.2679 40.3621 39.0726 40.3865 38.853L43.6813 23.2332C43.6813 22.9404 43.6325 22.7451 43.5349 22.5743ZM34.0654 35.0212C33.8946 35.1433 33.6749 35.2409 33.4797 35.3141C33.0892 35.4606 32.6743 35.5094 32.2106 35.5094C31.5028 35.5094 30.9903 35.3629 30.6486 35.0457C30.3069 34.7284 30.1361 34.3135 30.0873 33.7766C30.0385 33.2396 30.0629 32.6539 30.1117 32.0193C30.1605 31.6777 30.2093 31.336 30.3069 30.9943C30.4045 30.6526 30.4778 30.3109 30.5754 29.9692C30.7706 29.3347 31.0147 28.7245 31.332 28.212C31.6248 27.6751 32.0153 27.2602 32.5034 26.9429C32.9916 26.6256 33.5773 26.4792 34.2851 26.4792C34.7732 26.4792 35.1637 26.5524 35.5054 26.6989C35.6518 26.7721 35.7738 26.8453 35.8714 26.9185C36.2375 27.2114 36.4816 27.6019 36.5548 28.09C36.6524 28.5537 36.6524 29.0906 36.5304 29.6276C36.4572 30.0425 36.384 30.4574 36.3108 30.8479C36.2375 31.2383 36.1399 31.6777 35.9935 32.117C35.8714 32.7271 35.6274 33.264 35.3101 33.7766C34.9928 34.2891 34.5779 34.704 34.0654 35.0212Z" fill="white"/>
<path d="M53.0519 22.5743C52.9298 22.4279 52.759 22.3546 52.5149 22.3546H48.5856C48.3415 22.3546 48.1219 22.4279 47.9266 22.5743C47.7314 22.7207 47.6094 22.9404 47.5606 23.1844L44.2414 38.8042C44.1925 39.0238 44.2414 39.2191 44.3634 39.3899C44.4854 39.5607 44.6807 39.634 44.9247 39.634H48.8541C49.0981 39.634 49.3178 39.5607 49.513 39.3899C49.7083 39.2191 49.8059 39.0238 49.8547 38.8042L53.1495 23.1844C53.1739 22.9404 53.1495 22.7451 53.0519 22.5743ZM54.5894 15.4478C54.4674 15.277 54.2966 15.2037 54.0525 15.2037H50.0744C49.8547 15.2037 49.635 15.277 49.4398 15.4478C49.2446 15.6186 49.1225 15.8139 49.0737 16.0335L48.3904 19.0354C48.3659 19.2795 48.4148 19.4748 48.5368 19.6456C48.6588 19.792 48.8541 19.8652 49.0737 19.8652H53.0519C53.2715 19.8652 53.4912 19.792 53.6864 19.6456C53.8817 19.4992 54.0037 19.2795 54.0525 19.0354L54.6871 16.0335C54.7359 15.8139 54.7115 15.6186 54.5894 15.4478Z" fill="white"/>
<path d="M71.3082 25.0403C71.0885 24.5522 70.698 24.0641 70.1367 23.6004C69.5753 23.1366 68.8676 22.7462 67.989 22.4533C67.1104 22.1604 66.0365 22.014 64.7674 22.014C63.1322 22.014 61.6923 22.2824 60.472 22.795C59.2517 23.3075 58.251 23.9908 57.5433 24.7962C56.8111 25.626 56.3474 26.4802 56.1521 27.3589C55.9569 28.3595 56.0057 29.2137 56.323 29.8971C56.6403 30.5804 57.1772 31.1662 57.9338 31.5811C58.6903 32.0204 59.6422 32.362 60.7404 32.6305C61.9119 32.8502 62.7905 33.0698 63.3275 33.2895C63.8888 33.5091 64.2305 33.7288 64.4013 33.9728C64.5721 34.2169 64.5966 34.5098 64.5233 34.8514C64.4257 35.3152 64.1328 35.6812 63.6691 35.9253C63.181 36.1694 62.6441 36.3158 62.0339 36.3158C61.4726 36.3158 61.0333 36.2182 60.6916 36.0473C60.3499 35.8765 60.0571 35.6568 59.8374 35.4372C59.5934 35.1931 59.3493 35.0223 59.0808 34.8514C59.032 34.7782 58.9832 34.7538 58.9344 34.7294C58.8856 34.705 58.8124 34.705 58.7636 34.705H54.9807C54.7854 34.705 54.5902 34.7782 54.3949 34.9247C54.1997 35.0711 54.0776 35.2663 54.0532 35.5104C53.98 35.9009 54.0532 36.3158 54.2485 36.8283C54.4437 37.3164 54.8098 37.8045 55.3468 38.2683C55.8837 38.732 56.6159 39.1225 57.5677 39.4397C58.5195 39.757 59.691 39.9279 61.1309 39.9279C62.9126 39.9279 64.4745 39.7082 65.8169 39.2445C67.1348 38.7808 68.2086 38.1462 69.0384 37.3408C69.8682 36.511 70.3807 35.5836 70.6004 34.5098C70.7468 33.7044 70.7224 32.9478 70.4784 32.24C70.2343 31.5322 69.7462 30.8977 68.9408 30.3364C68.1598 29.7994 67.0127 29.4089 65.5484 29.1649C64.3525 28.9208 63.4739 28.7012 62.937 28.5059C62.4 28.3107 62.0584 28.091 61.9363 27.847C61.8143 27.6029 61.7655 27.3344 61.8387 27.0416C61.9363 26.6267 62.156 26.285 62.5465 26.0165C62.937 25.7481 63.4251 25.626 64.0352 25.626C64.5721 25.626 64.9871 25.7237 65.3043 25.8945C65.6216 26.0653 65.8901 26.2606 66.1097 26.4802C66.3294 26.6999 66.5734 26.8707 66.8419 27.0172C66.8907 27.066 66.9395 27.0904 67.0371 27.1392C67.1104 27.1636 67.1836 27.188 67.2812 27.188H70.7468C70.9421 27.188 71.1373 27.1148 71.3326 26.944C71.5278 26.7731 71.6254 26.5779 71.6498 26.3582C71.6254 25.9677 71.5278 25.5284 71.3082 25.0403Z" fill="white"/>
<path d="M90.5877 25.4796C90.0263 24.3813 89.1477 23.5271 87.9518 22.917C86.756 22.3313 85.2916 22.014 83.5344 22.014C81.704 22.014 80.0932 22.3068 78.7264 22.917C77.3597 23.5271 76.2615 24.3813 75.3828 25.4796C74.5286 26.5779 73.8697 27.9202 73.4548 29.5066C73.3084 29.9215 73.1863 30.434 73.0643 30.9953C72.9423 31.5567 72.869 32.0692 72.8202 32.5085C72.5762 34.0705 72.7226 35.3884 73.2351 36.511C73.7477 37.6337 74.6263 38.4879 75.7977 39.0736C76.9936 39.6838 78.4824 39.9767 80.264 39.9767C82.2165 39.9767 83.8517 39.6838 85.2184 39.0736C86.5607 38.4635 87.659 37.6093 88.5132 36.511C89.3674 35.3884 89.9775 34.046 90.4168 32.5085C90.5389 32.0692 90.6365 31.5567 90.7585 30.9953C90.8561 30.434 90.9782 29.9459 91.0514 29.5066C91.2954 27.9202 91.149 26.5779 90.5877 25.4796ZM85.1696 29.653C85.1208 29.9947 85.0476 30.434 84.9255 30.9709C84.8035 31.5322 84.7059 31.9716 84.6082 32.2888C84.291 33.4847 83.8273 34.3877 83.2171 34.9735C82.607 35.5836 81.8016 35.8765 80.8009 35.8765C79.8247 35.8765 79.1902 35.5836 78.8973 34.9735C78.6044 34.3633 78.5556 33.4847 78.7509 32.2888C78.7997 31.9471 78.8729 31.5078 78.9949 30.9709C79.1169 30.4096 79.2146 29.9703 79.3122 29.653C79.6295 28.4815 80.0932 27.5785 80.7033 26.9684C81.3135 26.3582 82.1189 26.0409 83.0707 26.0409C84.0713 26.0409 84.7303 26.3582 85.0231 26.9684C85.316 27.6029 85.3648 28.4815 85.1696 29.653Z" fill="white"/>
<path d="M107.722 22.5732C107.6 22.4267 107.405 22.3535 107.185 22.3535H103.036L104.207 16.8622C104.256 16.6181 104.207 16.4229 104.085 16.2521C103.963 16.1056 103.768 16.0324 103.548 16.0324H99.6923C99.4727 16.0324 99.253 16.1056 99.0578 16.2521C98.8625 16.3985 98.7405 16.6181 98.6917 16.8622L97.5202 22.3535H94.9088C94.6891 22.3535 94.4695 22.4267 94.2742 22.5732C94.079 22.7196 93.957 22.9393 93.9082 23.1833L93.3468 25.868C93.298 26.112 93.3468 26.3073 93.4689 26.4781C93.5909 26.6245 93.7861 26.7222 94.0058 26.7222H96.5928L95.2261 33.0921C94.9088 34.6296 94.9332 35.8743 95.2993 36.8262C95.6654 37.778 96.3243 38.5102 97.3006 38.9495C98.2768 39.4132 99.5459 39.6328 101.083 39.6328H103.841C104.085 39.6328 104.305 39.5596 104.5 39.3888C104.696 39.2179 104.818 39.0227 104.842 38.803L105.452 35.9232C105.501 35.6791 105.452 35.4839 105.354 35.313C105.257 35.1666 105.062 35.0934 104.818 35.0934H102.182C101.645 35.0934 101.279 34.9957 101.059 34.8005C100.839 34.6052 100.742 34.3124 100.717 33.9463C100.717 33.5802 100.742 33.1409 100.839 32.6528L102.109 26.7466H106.306C106.526 26.7466 106.746 26.6733 106.941 26.5025C107.136 26.3561 107.258 26.1364 107.307 25.8924L107.868 23.2077C107.868 22.9393 107.844 22.744 107.722 22.5732Z" fill="white"/>
<path d="M123.439 22.5733C123.317 22.4269 123.146 22.3536 122.902 22.3536H121.047C119.851 22.3536 118.851 22.5489 118.045 22.9394C117.24 23.3299 116.581 23.8424 116.044 24.5258L116.313 23.2078C116.361 22.9882 116.313 22.7929 116.191 22.6221C116.069 22.4513 115.873 22.378 115.654 22.378H111.822C111.578 22.378 111.358 22.4513 111.163 22.6221C110.968 22.7929 110.846 22.9882 110.797 23.2078L107.478 38.8276C107.429 39.0472 107.478 39.2425 107.6 39.4133C107.746 39.5842 107.917 39.6574 108.161 39.6574H112.286C112.53 39.6574 112.749 39.5842 112.945 39.4133C113.14 39.2425 113.262 39.0472 113.311 38.8276L115.117 30.3343C115.312 29.4313 115.727 28.7236 116.313 28.2354C116.923 27.7473 117.679 27.4789 118.607 27.4789H121.804C122.048 27.4789 122.268 27.4056 122.463 27.2348C122.658 27.064 122.78 26.8687 122.829 26.6491L123.537 23.2322C123.586 22.9394 123.561 22.7441 123.439 22.5733Z" fill="white"/>
<path d="M142.647 22.5753C142.525 22.4289 142.33 22.3557 142.11 22.3557H138.376C138.132 22.3557 137.912 22.4289 137.717 22.5753C137.522 22.7217 137.424 22.9414 137.376 23.1855L137.205 24.0397C136.79 23.4539 136.228 22.9902 135.521 22.5997C134.813 22.2092 133.788 22.014 132.446 22.014C131.323 22.014 130.273 22.2092 129.346 22.5509C128.419 22.917 127.589 23.4539 126.881 24.1373C126.173 24.8206 125.563 25.6504 125.051 26.6023C124.538 27.5541 124.148 28.628 123.855 29.7994C123.733 30.2387 123.659 30.6292 123.586 30.9709C123.513 31.3126 123.44 31.7031 123.367 32.1424C123.171 33.3871 123.147 34.4854 123.293 35.4616C123.44 36.4134 123.757 37.2432 124.245 37.9266C124.733 38.6099 125.392 39.1225 126.198 39.4641C127.003 39.8058 127.955 39.9767 129.004 39.9767C130.273 39.9767 131.298 39.757 132.079 39.3421C132.86 38.9272 133.617 38.3903 134.3 37.7557L134.056 38.8296C134.008 39.0492 134.056 39.2445 134.203 39.4153C134.325 39.5862 134.52 39.6594 134.74 39.6594H138.498C138.742 39.6594 138.962 39.5862 139.157 39.4153C139.352 39.2445 139.45 39.0492 139.499 38.8296L142.794 23.2099C142.794 22.9414 142.769 22.7462 142.647 22.5753ZM135.692 29.6286C135.618 30.0435 135.545 30.4584 135.472 30.8489C135.399 31.2394 135.277 31.6787 135.155 32.118C135.033 32.7281 134.789 33.2651 134.447 33.7776C134.105 34.2901 133.69 34.705 133.178 35.0223C132.665 35.3396 132.055 35.5104 131.323 35.5104C130.615 35.5104 130.103 35.364 129.761 35.0467C129.419 34.7294 129.248 34.3145 129.2 33.7776C129.151 33.2407 129.175 32.6549 129.224 32.0204C129.273 31.6787 129.346 31.337 129.419 30.9953C129.517 30.6536 129.59 30.312 129.688 29.9703C129.883 29.3357 130.127 28.7256 130.444 28.2131C130.737 27.6761 131.128 27.2612 131.616 26.944C132.104 26.6267 132.69 26.4802 133.422 26.4802C134.105 26.4802 134.642 26.6267 135.008 26.9195C135.374 27.2124 135.618 27.6029 135.716 28.091C135.789 28.5547 135.789 29.0673 135.692 29.6286Z" fill="white"/>
<path d="M143.354 7.688C142.451 6.54092 141.06 5.90637 139.571 5.90637H124.391C124.22 5.90637 124.074 6.0284 124.025 6.19924L123.756 7.51716C123.708 7.73681 123.878 7.95646 124.122 7.95646H139.596C140.474 7.95646 141.255 8.32255 141.768 8.9571C142.207 9.51843 142.354 10.153 142.207 10.8119L140.182 19.4028C140.133 19.6468 140.304 19.8665 140.548 19.8665H141.89C142.061 19.8665 142.207 19.7445 142.256 19.5736L144.208 11.2757C144.477 10.031 144.184 8.71304 143.354 7.688Z" fill="white"/>
<path d="M47.3664 5.83209C45.1454 5.83209 43.2418 7.27204 42.7536 9.34653L40.4107 19.4017C40.3619 19.6458 40.5327 19.8654 40.7768 19.8654H42.1191C42.2899 19.8654 42.4364 19.7434 42.4852 19.5726L44.7549 9.81024C45.0234 8.71198 46.0972 7.90659 47.3664 7.90659H69.234C69.4048 7.90659 69.5512 7.78456 69.6001 7.61372L69.9173 6.2958C69.9661 6.05174 69.7953 5.83209 69.5512 5.83209H47.3664Z" fill="white"/>
</svg>
