<svg width="32" height="32" viewBox="0 0 32 32" fill="none" xmlns="http://www.w3.org/2000/svg">
<g clip-path="url(#clip0)">
<path d="M13.2507 18.7492C10.1963 15.6948 9.50668 12.6405 9.35109 11.4168C9.30762 11.0784 9.42406 10.7391 9.66613 10.4987L12.1379 8.02808C12.5014 7.66471 12.566 7.09841 12.2934 6.66256L8.35799 0.551665C8.05648 0.0690438 7.4374 -0.105139 6.92847 0.149458L0.610679 3.12491C0.199125 3.32756 -0.0429453 3.76483 0.00378205 4.22118C0.334817 7.36601 1.70585 15.0968 9.30309 22.6946C16.9003 30.2924 24.63 31.6628 27.7765 31.9939C28.2328 32.0406 28.6701 31.7985 28.8727 31.387L31.8482 25.0692C32.1018 24.5613 31.9288 23.9439 31.4482 23.6419L25.3373 19.7075C24.9017 19.4347 24.3354 19.4988 23.9718 19.862L21.5012 22.3337C21.2608 22.5758 20.9215 22.6922 20.5831 22.6488C19.3594 22.4932 16.305 21.8035 13.2507 18.7492Z" fill="white"/>
<path d="M25.3792 17.1035C24.7698 17.1035 24.2758 16.6095 24.2758 16.0001C24.2706 11.4316 20.5684 7.7294 15.9999 7.72423C15.3905 7.72423 14.8965 7.2302 14.8965 6.62078C14.8965 6.01136 15.3905 5.51733 15.9999 5.51733C21.7868 5.52372 26.4763 10.2133 26.4827 16.0001C26.4827 16.6095 25.9887 17.1035 25.3792 17.1035Z" fill="#F8B941"/>
<path d="M30.8965 17.1035C30.2871 17.1035 29.7931 16.6094 29.7931 16C29.7845 8.38581 23.6141 2.21541 15.9999 2.2069C15.3905 2.2069 14.8965 1.71287 14.8965 1.10345C14.8965 0.494031 15.3905 0 15.9999 0C24.8325 0.00973014 31.9902 7.16748 32 16C32 16.2927 31.8837 16.5733 31.6768 16.7803C31.4698 16.9872 31.1892 17.1035 30.8965 17.1035Z" fill="#F8B941"/>
</g>
<defs>
<clipPath id="clip0">
<rect width="32" height="32" fill="white"/>
</clipPath>
</defs>
</svg>
