<svg width="40" height="40" viewBox="0 0 40 40" fill="none" xmlns="http://www.w3.org/2000/svg">
<g clip-path="url(#clip0)">
<path d="M23.2884 4.17371H1.58773C0.712266 4.17371 0 4.88597 0 5.76144V30.8575C0 31.4213 0.29625 31.9161 0.740469 32.1979C1.38781 30.607 2.94984 29.4821 4.77055 29.4821C6.68422 29.4821 8.31203 30.7248 8.89234 32.4453H14.1715C14.7518 30.7249 16.3796 29.4821 18.2933 29.4821C20.207 29.4821 21.8348 30.7248 22.4151 32.4453H24.8762V6.66441V5.76144C24.8762 4.88597 24.1639 4.17371 23.2884 4.17371ZM20.367 22.8149C20.367 23.9836 19.4161 24.9345 18.2473 24.9345H6.62883C5.46008 24.9345 4.50922 23.9836 4.50922 22.8149V11.1964C4.50922 10.0276 5.46008 9.07675 6.62883 9.07675H18.2473C19.4161 9.07675 20.367 10.0276 20.367 11.1964V22.8149Z" fill="white"/>
<path d="M33.7126 8.73682C33.2868 8.17651 32.6124 7.84198 31.9087 7.84198H27.2324V16.2163H39.3963L33.7126 8.73682Z" fill="white"/>
<path d="M27.2324 21.4486H29.2492C29.8995 21.4486 30.4268 21.9758 30.4268 22.6262C30.4268 23.2765 29.8996 23.8037 29.2492 23.8037H27.2324V32.4452H29.4197C30 30.7248 31.6278 29.482 33.5415 29.482C35.4552 29.482 37.083 30.7248 37.6634 32.4452H37.7355C38.9848 32.4452 40.0011 31.4289 40.0011 30.1797V18.5714H27.2324V21.4486Z" fill="white"/>
<path d="M35.5342 33.8317C35.5342 32.7319 34.6394 31.8371 33.5395 31.8371C32.4397 31.8371 31.5449 32.7319 31.5449 33.8317C31.5449 34.9315 32.4397 35.8263 33.5395 35.8263C34.6394 35.8263 35.5342 34.9315 35.5342 33.8317Z" fill="white"/>
<path d="M6.76657 33.8317C6.76657 32.7319 5.8718 31.8371 4.77195 31.8371C3.67211 31.8371 2.77734 32.7319 2.77734 33.8317C2.77734 34.9315 3.67211 35.8263 4.77195 35.8263C5.8718 35.8263 6.76657 34.9315 6.76657 33.8317Z" fill="white"/>
<path d="M20.288 33.8317C20.288 32.7319 19.3933 31.8371 18.2934 31.8371C17.1936 31.8371 16.2988 32.7319 16.2988 33.8317C16.2988 34.9315 17.1936 35.8263 18.2934 35.8263C19.3933 35.8263 20.288 34.9315 20.288 33.8317Z" fill="white"/>
<path d="M10.3577 17.0056C10.3577 17.6559 9.83047 18.1831 9.18008 18.1831H6.86523V22.5793H18.0127V11.4319H6.86523V15.8281H9.18008C9.83039 15.828 10.3577 16.3552 10.3577 17.0056Z" fill="#F8B941"/>
</g>
<defs>
<clipPath id="clip0">
<rect width="40" height="40" fill="white"/>
</clipPath>
</defs>
</svg>
