 <svg width="32" height="32" viewBox="0 0 32 32" fill="none" xmlns="http://www.w3.org/2000/svg">
<path d="M16 0C9.934 0 5 4.934 5 11C5 17.066 9.934 22 16 22C22.064 22 27 17.066 27 11C27 4.934 22.064 0 16 0ZM21.782 9.444L19.882 11.824L20.09 14.934C20.114 15.28 19.956 15.614 19.67 15.816C19.496 15.938 19.294 16 19.09 16C18.958 16 18.824 15.974 18.7 15.92L16 14.774L13.302 15.92C12.982 16.056 12.614 16.018 12.332 15.816C12.048 15.614 11.89 15.28 11.912 14.934L12.12 11.824L10.22 9.444C10.008 9.18 9.946 8.826 10.052 8.504C10.158 8.182 10.42 7.938 10.748 7.852L13.584 7.11L15.14 4.49C15.5 3.882 16.5 3.882 16.858 4.49L18.414 7.11L21.252 7.852C21.578 7.938 21.84 8.184 21.948 8.504C22.056 8.824 21.992 9.178 21.782 9.444Z" fill="#F8B941"/>
<path d="M4.74926 17.486L0.13326 25.5C-0.0687397 25.852 -0.0387397 26.29 0.20726 26.61C0.45326 26.93 0.86726 27.074 1.25926 26.966L7.13126 25.388L8.69326 31.26C8.79726 31.65 9.12726 31.94 9.52726 31.994C9.57126 31.998 9.61726 32 9.65926 32C10.0133 32 10.3453 31.812 10.5253 31.5L14.8913 23.944C10.5533 23.576 6.82526 21.07 4.74926 17.486Z" fill="white"/>
<path d="M31.8674 25.5L27.2494 17.486C25.1754 21.07 21.4454 23.576 17.1074 23.944L21.4734 31.5C21.6534 31.812 21.9854 32 22.3394 32C22.3814 32 22.4274 31.998 22.4694 31.992C22.8714 31.938 23.1994 31.648 23.3054 31.258L24.8674 25.386L30.7394 26.964C31.1314 27.072 31.5434 26.928 31.7914 26.608C32.0394 26.29 32.0674 25.852 31.8674 25.5Z" fill="white"/>
</svg>
