<svg width="40" height="40" viewBox="0 0 40 40" fill="none" xmlns="http://www.w3.org/2000/svg">
<g clip-path="url(#clip0)">
<path d="M20 25C22.7614 25 25 22.7614 25 20C25 17.2386 22.7614 15 20 15C17.2386 15 15 17.2386 15 20C15 22.7614 17.2386 25 20 25Z" fill="#F8B941"/>
<path d="M14.0382 11.8015C14.1361 11.9974 14.2718 12.1721 14.4373 12.3156C14.6028 12.4591 14.795 12.5686 15.0029 12.6378C15.2108 12.7069 15.4302 12.7344 15.6487 12.7187C15.8672 12.7029 16.0805 12.6443 16.2763 12.546C17.4328 11.9678 18.7079 11.6667 20.0009 11.6667C21.2939 11.6667 22.5691 11.9678 23.7255 12.546C23.9213 12.6443 24.1346 12.7029 24.3531 12.7187C24.5716 12.7344 24.791 12.7069 24.9989 12.6378C25.2068 12.5686 25.399 12.4591 25.5645 12.3156C25.7301 12.1721 25.8657 11.9974 25.9636 11.8015L29.6928 4.34459C29.8903 3.94944 29.9229 3.49202 29.7834 3.07285C29.6439 2.65368 29.3436 2.30707 28.9486 2.10917C26.1701 0.722069 23.1072 0 20.0017 0C16.8963 0 13.8333 0.722069 11.0549 2.10917C10.6599 2.30707 10.3596 2.65368 10.2201 3.07285C10.0805 3.49202 10.1131 3.94944 10.3107 4.34459L14.0382 11.8015Z" fill="white"/>
<path d="M15.4068 26.9527C14.3277 26.2403 13.4294 25.2865 12.7829 24.1667C12.1364 23.047 11.7595 21.7921 11.682 20.5014C11.6692 20.2827 11.6133 20.0687 11.5177 19.8716C11.4221 19.6745 11.2886 19.4982 11.1248 19.3527C10.961 19.2073 10.7701 19.0956 10.5631 19.024C10.356 18.9523 10.1369 18.9222 9.91825 18.9354L1.59617 19.4354C1.15517 19.4618 0.742725 19.6623 0.449463 19.9927C0.156202 20.3231 0.00612226 20.7564 0.0322072 21.1975C0.220229 24.2972 1.12637 27.3107 2.67906 30.0001C4.23175 32.6895 6.38847 34.981 8.97887 36.6937C9.34777 36.9369 9.79811 37.0236 10.2309 36.9348C10.6637 36.8461 11.0436 36.5891 11.287 36.2204L15.8807 29.262C16.0014 29.0793 16.0849 28.8745 16.1264 28.6594C16.1679 28.4443 16.1665 28.2232 16.1225 28.0087C16.0785 27.7941 15.9926 27.5903 15.8697 27.409C15.7469 27.2276 15.5895 27.0723 15.4066 26.9518L15.4068 26.9527Z" fill="white"/>
<path d="M38.4043 19.435L30.0823 18.935C29.8636 18.9219 29.6445 18.952 29.4374 19.0236C29.2304 19.0952 29.0395 19.2069 28.8757 19.3524C28.7119 19.4978 28.5784 19.6741 28.4828 19.8712C28.3872 20.0683 28.3313 20.2824 28.3185 20.501C28.2411 21.7917 27.8641 23.0466 27.2176 24.1664C26.5711 25.2861 25.6728 26.2399 24.5937 26.9523C24.4108 27.0728 24.2534 27.2281 24.1306 27.4095C24.0077 27.5908 23.9218 27.7946 23.8778 28.0091C23.8337 28.2237 23.8324 28.4448 23.8739 28.6599C23.9154 28.8749 23.9989 29.0797 24.1195 29.2625L28.7133 36.2208C28.9568 36.5895 29.3367 36.8465 29.7696 36.9352C30.2024 37.0238 30.6528 36.937 31.0216 36.6938C33.6121 34.981 35.7689 32.6894 37.3216 30C38.8744 27.3105 39.7805 24.2969 39.9685 21.1971C39.9946 20.756 39.8445 20.3227 39.5512 19.9923C39.2579 19.6618 38.8454 19.4614 38.4043 19.435Z" fill="white"/>
</g>
<defs>
<clipPath id="clip0">
<rect width="40" height="40" fill="white"/>
</clipPath>
</defs>
</svg>
