<svg width="32" height="32" viewBox="0 0 32 32" fill="none" xmlns="http://www.w3.org/2000/svg">
<g clip-path="url(#clip0)">
<path d="M31.3327 18.0574L25.666 16.0574C25.45 15.98 25.2153 15.98 24.9993 16.0574L19.3327 18.0574C18.9327 18.1974 18.666 18.576 18.666 19V23.5C18.666 29.088 24.674 31.8027 24.9287 31.9147C25.058 31.972 25.194 32 25.3327 32C25.4713 32 25.6073 31.972 25.7367 31.9147C25.9913 31.8027 31.9993 29.088 31.9993 23.5V19C31.9993 18.576 31.7327 18.1974 31.3327 18.0574ZM28.9913 22.7707L25.5073 26.3854C25.318 26.5814 25.058 26.6907 24.7873 26.6907C24.778 26.6907 24.7673 26.6907 24.7593 26.6907C24.478 26.6827 24.2127 26.556 24.0287 26.3427L22.1793 24.1894C21.8193 23.7707 21.8687 23.1387 22.2873 22.7787C22.7073 22.4187 23.3367 22.468 23.698 22.8854L24.8313 24.2054L27.5527 21.3814C27.938 20.9827 28.5713 20.9734 28.9673 21.3547C29.362 21.74 29.374 22.3734 28.9913 22.7707Z" fill="#F8B941"/>
<path d="M17.92 2.11999L5.81333 8.22665L1 5.89332L12.8933 0.106653C13.16 -0.0266805 13.48 -0.0266805 13.76 0.106653L17.92 2.11999Z" fill="white"/>
<path d="M25.6664 5.89332L13.3464 11.9067L8.73307 9.66665L8.06641 9.33332L20.1864 3.22665L20.8531 3.55999L25.6664 5.89332Z" fill="white"/>
<path d="M12.36 13.64L12.3467 26.2933L0.546667 20.2267C0.213333 20.0533 0 19.7067 0 19.3333V7.62668L5 10.0533V14.32C5 14.8667 5.45333 15.32 6 15.32C6.54667 15.32 7 14.8667 7 14.32V11.04L7.66667 11.36L12.36 13.64Z" fill="white"/>
<path d="M26.679 13.5867L26.559 13.5467C26.159 13.4 25.7457 13.3333 25.3324 13.3333C24.919 13.3333 24.5057 13.4 24.1057 13.5467L18.4524 15.5467C16.9857 16.0533 15.999 17.44 15.999 19V23.4934C15.999 24.1334 16.0524 24.76 16.1724 25.3467L14.3457 26.28L14.359 13.6267L26.6657 7.64001C26.679 9.06668 26.679 12.1867 26.679 13.5867Z" fill="white"/>
</g>
<defs>
<clipPath id="clip0">
<rect width="32" height="32" fill="white"/>
</clipPath>
</defs>
</svg>
