<svg width="40" height="40" viewBox="0 0 40 40" fill="none" xmlns="http://www.w3.org/2000/svg">
<g clip-path="url(#clip0)">
<path d="M9.16667 8.62836L0.921667 10.8767C0.378333 11.025 0 11.52 0 12.0834V29.5834C0 30.1467 0.378333 30.6417 0.921667 30.79L9.16667 33.0384V8.62836Z" fill="#F8B941"/>
<path d="M38.8594 10.8384L11.666 8.43835V33.2284L38.8594 30.8284C39.5044 30.7717 39.9994 30.2317 39.9994 29.5834V12.0834C39.9994 11.435 39.5044 10.895 38.8594 10.8384ZM17.4993 27.0834C17.4993 27.7734 16.9393 28.3334 16.2493 28.3334C15.5593 28.3334 14.9993 27.7734 14.9993 27.0834V14.5834C14.9993 13.8934 15.5593 13.3334 16.2493 13.3334C16.9393 13.3334 17.4993 13.8934 17.4993 14.5834V27.0834ZM24.166 26.25C24.166 26.94 23.606 27.5 22.916 27.5C22.226 27.5 21.666 26.94 21.666 26.25V15.4167C21.666 14.7267 22.226 14.1667 22.916 14.1667C23.606 14.1667 24.166 14.7267 24.166 15.4167V26.25ZM30.8327 25.4167C30.8327 26.1067 30.2727 26.6667 29.5827 26.6667C28.8927 26.6667 28.3327 26.1067 28.3327 25.4167V16.25C28.3327 15.56 28.8927 15 29.5827 15C30.2727 15 30.8327 15.56 30.8327 16.25V25.4167ZM36.666 25C36.666 25.69 36.106 26.25 35.416 26.25C34.726 26.25 34.166 25.69 34.166 25V17.0834C34.166 16.3934 34.726 15.8334 35.416 15.8334C36.106 15.8334 36.666 16.3934 36.666 17.0834V25Z" fill="white"/>
</g>
<defs>
<clipPath id="clip0">
<rect width="40" height="40" fill="white"/>
</clipPath>
</defs>
</svg>
